<?xml version="1.0" encoding="UTF-8"?>
<svg version="1.1" xmlns="http://www.w3.org/2000/svg" width="540" height="462">
<path d="M0 0 C3.3619547 0.56445521 4.74948448 1.44167369 6.84765625 4.10546875 C7.62447754 5.07673706 7.62447754 5.07673706 8.41699219 6.06762695 C8.96000977 6.76718506 9.50302734 7.46674316 10.0625 8.1875 C10.62743164 8.90059326 11.19236328 9.61368652 11.77441406 10.34838867 C12.94443203 11.82760697 14.11024716 13.31015867 15.27197266 14.79589844 C16.92097969 16.89920947 18.58758778 18.98697222 20.26171875 21.0703125 C21.25828394 22.31733172 22.25439992 23.56471011 23.25 24.8125 C23.71543213 25.39217529 24.18086426 25.97185059 24.66040039 26.5690918 C26.61645234 29.04749643 27.99235667 30.97707001 29 34 C29.66 34 30.32 34 31 34 C31 34.66 31 35.32 31 36 C31.66 36 32.32 36 33 36 C34.2890625 37.4609375 34.2890625 37.4609375 35.625 39.375 C36.07101563 40.00148437 36.51703125 40.62796875 36.9765625 41.2734375 C38 43 38 43 38 45 C38.66 45 39.32 45 40 45 C42.12899756 52.20583789 39.10678152 57.45318358 36 64 C36.73114014 63.98428955 37.46228027 63.9685791 38.21557617 63.95239258 C41.5394716 63.88989649 44.8632432 63.85096248 48.1875 63.8125 C49.91323242 63.77479492 49.91323242 63.77479492 51.67382812 63.73632812 C53.34155273 63.72182617 53.34155273 63.72182617 55.04296875 63.70703125 C56.06414795 63.6913208 57.08532715 63.67561035 58.13745117 63.65942383 C63.79073383 64.33203187 67.30737181 67.88535716 71 72 C71 72.66 71 73.32 71 74 C71.99 74.33 72.98 74.66 74 75 C75.4296875 76.453125 75.4296875 76.453125 76.875 78.25 C80.85754775 83.05855766 85.11393856 87.11620758 90 91 C91.35147138 92.31494512 92.69112542 93.64264858 94 95 C97.58834417 92.00617439 101.06642302 88.99130205 104.3125 85.625 C107 83 107 83 109 83 C109.66 81.35 110.32 79.7 111 78 C109.92878906 77.45730469 108.85757813 76.91460937 107.75390625 76.35546875 C106.35650699 75.63332282 104.95938585 74.91063855 103.5625 74.1875 C102.50192383 73.65286133 102.50192383 73.65286133 101.41992188 73.10742188 C96.11328125 70.33984375 96.11328125 70.33984375 95 67 C102.38473495 64.85378616 109.72839208 63.19711748 117.3125 61.9375 C118.30709229 61.76831055 119.30168457 61.59912109 120.32641602 61.42480469 C127.86699347 60.15488996 135.41832767 58.99862582 143 58 C143.4233212 65.30934599 142.02279189 72.21609426 140.60131836 79.35375977 C140.18951425 81.42735746 139.79217966 83.50335335 139.39648438 85.58007812 C138.03958596 92.57767585 136.46888467 99.30509652 134 106 C131 105 131 105 129.9375 103.36328125 C129.4734375 102.34814453 129.4734375 102.34814453 129 101.3125 C128.49726562 100.23935547 128.49726562 100.23935547 127.984375 99.14453125 C127.65953125 98.43683594 127.3346875 97.72914062 127 97 C126.4225 95.845 125.845 94.69 125.25 93.5 C124.63125 92.2625 124.63125 92.2625 124 91 C120.99171418 92.31773204 119.26003628 93.60401219 117.25 96.1875 C114.39905716 99.66796576 111.2270131 102.47706435 107.8046875 105.3828125 C105.85491383 107.04072435 105.85491383 107.04072435 104 109.5 C101.58754578 112.51556778 98.8057385 114.81275245 95.875 117.3125 C93.86602082 119.028658 93.86602082 119.028658 92 121.5 C89.58754578 124.51556778 86.8057385 126.81275245 83.875 129.3125 C81.86602082 131.028658 81.86602082 131.028658 80 133.5 C77.63742454 136.45321933 74.95350539 138.72005115 72.0859375 141.171875 C68.90135203 143.96286002 65.96244135 146.97764411 63 150 C61.33417495 151.66751548 59.66736107 153.33402164 58 155 C56.88862445 156.1112807 55.77729951 157.22261201 54.66601562 158.33398438 C46.55533854 166.44466146 38.44466146 174.55533854 30.33398438 182.66601562 C29.47345207 183.52668388 29.47345207 183.52668388 28.59553528 184.40473938 C27.19219569 185.80783739 25.78794262 187.21002163 24.38354492 188.61206055 C21.8353057 191.16499794 19.30179573 193.7320015 16.76953125 196.30078125 C15.29153843 197.79348699 13.81260636 199.28525502 12.33325195 200.77661133 C11.31228118 201.80774427 10.29309704 202.84064906 9.27563477 203.87524414 C7.79907634 205.37593475 6.31626141 206.87018285 4.83203125 208.36328125 C3.95264893 209.25313721 3.0732666 210.14299316 2.16723633 211.05981445 C0 213 0 213 -2 213 C-2.4640625 213.9590625 -2.4640625 213.9590625 -2.9375 214.9375 C-4 217 -4 217 -5 218 C-6.06745425 226.01794279 -6.06745425 226.01794279 -3.4375 233.34765625 C-1.5481888 235.19987555 -1.5481888 235.19987555 0.46875 236.73046875 C0.9740625 237.14941406 1.479375 237.56835938 2 238 C2 238.66 2 239.32 2 240 C2.804375 240.3403125 2.804375 240.3403125 3.625 240.6875 C5.75025221 241.86198149 7.30246801 243.04815247 9.125 244.625 C11.63546917 247.21229382 11.63546917 247.21229382 14 247 C14.268125 246.360625 14.53625 245.72125 14.8125 245.0625 C16 243 16 243 19 242 C19 241.34 19 240.68 19 240 C19.66 240 20.32 240 21 240 C21.268125 239.360625 21.53625 238.72125 21.8125 238.0625 C23 236 23 236 26 235 C26 234.34 26 233.68 26 233 C26.66 233 27.32 233 28 233 C28.268125 232.360625 28.53625 231.72125 28.8125 231.0625 C30 229 30 229 33 228 C33.70151152 226.6846659 34.36525925 225.34882408 35 224 C36.5 222.25 36.5 222.25 38 221 C38.66 221 39.32 221 40 221 C40.268125 220.360625 40.53625 219.72125 40.8125 219.0625 C42 217 42 217 45 216 C45 215.34 45 214.68 45 214 C45.66 214 46.32 214 47 214 C47.268125 213.360625 47.53625 212.72125 47.8125 212.0625 C49 210 49 210 52 209 C52 208.34 52 207.68 52 207 C52.66 207 53.32 207 54 207 C54.268125 206.360625 54.53625 205.72125 54.8125 205.0625 C56 203 56 203 59 202 C59.33 201.34 59.66 200.68 60 200 C61 198 61 198 64 197 C64 196.34 64 195.68 64 195 C64.66 195 65.32 195 66 195 C66.268125 194.360625 66.53625 193.72125 66.8125 193.0625 C68 191 68 191 71 190 C71 189.34 71 188.68 71 188 C71.66 188 72.32 188 73 188 C73.268125 187.360625 73.53625 186.72125 73.8125 186.0625 C75 184 75 184 78 183 C78.33 182.34 78.66 181.68 79 181 C80 179 80 179 83 178 C83 177.34 83 176.68 83 176 C83.66 176 84.32 176 85 176 C85.268125 175.360625 85.53625 174.72125 85.8125 174.0625 C87 172 87 172 90 171 C90 170.34 90 169.68 90 169 C90.66 169 91.32 169 92 169 C92.268125 168.360625 92.53625 167.72125 92.8125 167.0625 C94 165 94 165 97 164 C97 163.34 97 162.68 97 162 C97.66 162 98.32 162 99 162 C99.268125 161.360625 99.53625 160.72125 99.8125 160.0625 C101 158 101 158 104 157 C104 156.34 104 155.68 104 155 C104.66 155 105.32 155 106 155 C106.33 154.01 106.66 153.02 107 152 C107.66 152 108.32 152 109 152 C109 151.34 109 150.68 109 150 C109.66 150 110.32 150 111 150 C111.33 149.01 111.66 148.02 112 147 C112.66 147 113.32 147 114 147 C114 146.34 114 145.68 114 145 C115.6796875 143.37890625 115.6796875 143.37890625 117.875 141.5625 C120.46193722 139.41599116 122.11184374 137.83223438 124 135 C124.66 135 125.32 135 126 135 C126 134.34 126 133.68 126 133 C126.66 133 127.32 133 128 133 C128 132.34 128 131.68 128 131 C128.66 131 129.32 131 130 131 C130.33 130.01 130.66 129.02 131 128 C132.9375 125.8125 132.9375 125.8125 135 124 C135.66 124 136.32 124 137 124 C137.33 123.01 137.66 122.02 138 121 C138.66 121 139.32 121 140 121 C140 120.34 140 119.68 140 119 C140.66 119 141.32 119 142 119 C142 118.34 142 117.68 142 117 C143.6796875 115.37890625 143.6796875 115.37890625 145.875 113.5625 C148.46193722 111.41599116 150.11184374 109.83223438 152 107 C152.66 107 153.32 107 154 107 C154 106.34 154 105.68 154 105 C154.66 105 155.32 105 156 105 C156 104.34 156 103.68 156 103 C157.57421875 101.44921875 157.57421875 101.44921875 159.6875 99.6875 C162.94538314 96.91715219 166.01430155 94.066393 169 91 C170.66525169 89.33191956 172.33212746 87.66545992 174 86 C174.88405518 85.11594482 175.76811035 84.23188965 176.67895508 83.32104492 C183.45263672 76.54736328 190.22631836 69.77368164 197 63 C195.15927809 59.31855618 190.48617485 58.23264381 186.8828125 56.53515625 C184.37968286 55.20218884 182.72765574 54.21695685 181 52 C181 51.34 181 50.68 181 50 C186.0851831 49.01570917 191.17146039 48.03734967 196.25878906 47.06420898 C197.98533067 46.73311128 199.71157542 46.40046133 201.4375 46.06616211 C220.20617138 42.43299048 220.20617138 42.43299048 228 42 C229 43 229 43 229.01953125 45.08984375 C228.49389319 52.31984644 227.17867157 59.15541639 225.51513672 66.18945312 C224.11135048 72.20167997 223.22957181 78.13164163 222.58984375 84.27734375 C221.95938448 87.18747693 221.31473473 88.19965077 219 90 C210 76.63106796 210 76.63106796 210 74 C206.88214887 74.64644661 206.88214887 74.64644661 206 77 C205.34 77 204.68 77 204 77 C204 77.66 204 78.32 204 79 C201.625 81.625 201.625 81.625 199 84 C198.34 84 197.68 84 197 84 C196.731875 84.639375 196.46375 85.27875 196.1875 85.9375 C195 88 195 88 192 89 C191.29848848 90.3153341 190.63474075 91.65117592 190 93 C188.5 94.75 188.5 94.75 187 96 C186.34 96 185.68 96 185 96 C185 96.66 185 97.32 185 98 C184.34 98 183.68 98 183 98 C182.67 98.99 182.34 99.98 182 101 C181.34 101 180.68 101 180 101 C180 101.66 180 102.32 180 103 C179.34 103 178.68 103 178 103 C178 103.66 178 104.32 178 105 C177.34 105 176.68 105 176 105 C175.67 105.99 175.34 106.98 175 108 C174.34 108 173.68 108 173 108 C173 108.66 173 109.32 173 110 C172.34 110 171.68 110 171 110 C171 110.66 171 111.32 171 112 C168.625 114.625 168.625 114.625 166 117 C165.34 117 164.68 117 164 117 C164 117.66 164 118.32 164 119 C162.3203125 120.62109375 162.3203125 120.62109375 160.125 122.4375 C157.53806278 124.58400884 155.88815626 126.16776562 154 129 C153.34 129 152.68 129 152 129 C152 129.66 152 130.32 152 131 C150.625 132.625 150.625 132.625 149 134 C148.34 134 147.68 134 147 134 C147 134.66 147 135.32 147 136 C146.34 136 145.68 136 145 136 C145 136.66 145 137.32 145 138 C144.34 138 143.68 138 143 138 C142.67 138.99 142.34 139.98 142 141 C141.34 141 140.68 141 140 141 C139.731875 141.598125 139.46375 142.19625 139.1875 142.8125 C138.00082594 144.99847854 136.90400887 146.41332594 135 148 C134.34 148 133.68 148 133 148 C133 148.66 133 149.32 133 150 C132.34 150 131.68 150 131 150 C130.67 150.99 130.34 151.98 130 153 C129.34 153 128.68 153 128 153 C127.731875 153.598125 127.46375 154.19625 127.1875 154.8125 C126.00082594 156.99847854 124.90400887 158.41332594 123 160 C122.34 160 121.68 160 121 160 C121 160.66 121 161.32 121 162 C120.34 162 119.68 162 119 162 C119 162.66 119 163.32 119 164 C116.625 166.625 116.625 166.625 114 169 C113.34 169 112.68 169 112 169 C111.731875 169.639375 111.46375 170.27875 111.1875 170.9375 C110 173 110 173 107 174 C107 174.66 107 175.32 107 176 C105.625 177.625 105.625 177.625 104 179 C103.34 179 102.68 179 102 179 C102 179.66 102 180.32 102 181 C101.34 181 100.68 181 100 181 C99.731875 181.639375 99.46375 182.27875 99.1875 182.9375 C98 185 98 185 95 186 C95 186.66 95 187.32 95 188 C94.34 188 93.68 188 93 188 C93 188.66 93 189.32 93 190 C91.625 191.625 91.625 191.625 90 193 C89.34 193 88.68 193 88 193 C88 193.66 88 194.32 88 195 C87.34 195 86.68 195 86 195 C85.67 195.99 85.34 196.98 85 198 C84.34 198 83.68 198 83 198 C82.731875 198.598125 82.46375 199.19625 82.1875 199.8125 C81.00082594 201.99847854 79.90400887 203.41332594 78 205 C77.34 205 76.68 205 76 205 C76 205.66 76 206.32 76 207 C75.34 207 74.68 207 74 207 C74 207.66 74 208.32 74 209 C72.625 210.625 72.625 210.625 71 212 C70.34 212 69.68 212 69 212 C69 212.66 69 213.32 69 214 C68.34 214 67.68 214 67 214 C66.67 214.99 66.34 215.98 66 217 C65.34 217 64.68 217 64 217 C64 217.66 64 218.32 64 219 C63.34 219 62.68 219 62 219 C62 219.66 62 220.32 62 221 C60.625 222.625 60.625 222.625 59 224 C58.34 224 57.68 224 57 224 C57 224.66 57 225.32 57 226 C56.34 226 55.68 226 55 226 C54.67 226.99 54.34 227.98 54 229 C53.34 229 52.68 229 52 229 C52 229.66 52 230.32 52 231 C51.34 231 50.68 231 50 231 C50 231.66 50 232.32 50 233 C47.625 235.625 47.625 235.625 45 238 C44.34 238 43.68 238 43 238 C43 238.66 43 239.32 43 240 C41.625 241.625 41.625 241.625 40 243 C39.34 243 38.68 243 38 243 C38 243.66 38 244.32 38 245 C37.34 245 36.68 245 36 245 C36 245.66 36 246.32 36 247 C34.625 248.625 34.625 248.625 33 250 C32.34 250 31.68 250 31 250 C31 250.66 31 251.32 31 252 C28.625 254.625 28.625 254.625 26 257 C25.34 257 24.68 257 24 257 C24 257.66 24 258.32 24 259 C23.34 259 22.68 259 22 259 C22 259.66 22 260.32 22 261 C21.34 261.33 20.68 261.66 20 262 C19.52998967 265.27555608 19.52998967 265.27555608 19.375 269.0625 C19.30023438 270.35285156 19.22546875 271.64320313 19.1484375 272.97265625 C19.07496094 274.47119141 19.07496094 274.47119141 19 276 C19.66 276 20.32 276 21 276 C22.4453125 277.46875 22.4453125 277.46875 24.125 279.5 C27.8615876 283.90524012 31.86943366 287.96599235 36 292 C42.26402338 286.83034092 47.95795173 281.16353349 53.67700195 275.40478516 C54.73858276 274.33964245 55.80040274 273.27473807 56.86244202 272.21005249 C59.1364039 269.92957406 61.40884599 267.64759597 63.68013954 265.36445999 C67.26957706 261.75665348 70.86342599 258.15326311 74.45805359 254.55062866 C84.67445645 244.31012639 94.88485212 234.06364658 105.09106445 223.81298828 C110.73736443 218.14217776 116.3872232 212.47493729 122.0409562 206.81153715 C125.61799704 203.22794248 129.19047878 199.63988196 132.75968802 196.0484879 C134.97345924 193.82302725 137.19136093 191.60172007 139.41048241 189.38159561 C140.4418363 188.34808598 141.47145797 187.31284454 142.49925232 186.27579498 C143.89707439 184.86586928 145.30159426 183.46259309 146.70649719 182.0597229 C147.49199101 181.27108667 148.27748484 180.48245045 149.0867815 179.66991615 C151 178 151 178 153 178 C153.35578125 177.15743652 153.35578125 177.15743652 153.71875 176.29785156 C155.29319357 173.47417342 157.21684545 171.52385158 159.5 169.234375 C160.386875 168.34492188 161.27375 167.45546875 162.1875 166.5390625 C163.115625 165.61867187 164.04375 164.69828125 165 163.75 C165.928125 162.81414062 166.85625 161.87828125 167.8125 160.9140625 C168.699375 160.02976563 169.58625 159.14546875 170.5 158.234375 C171.3146875 157.42194336 172.129375 156.60951172 172.96875 155.77246094 C175 154 175 154 177 154 C177.33 153.01 177.66 152.02 178 151 C179.9375 148.8125 179.9375 148.8125 182 147 C182.66 147 183.32 147 184 147 C184 146.34 184 145.68 184 145 C184.66 145 185.32 145 186 145 C186 144.34 186 143.68 186 143 C187.49609375 141.5625 187.49609375 141.5625 189.4375 140 C192.15188238 137.85474956 192.15188238 137.85474956 194 135 C194.66 135 195.32 135 196 135 C196 134.34 196 133.68 196 133 C196.66 133 197.32 133 198 133 C198 132.34 198 131.68 198 131 C199.42578125 129.6328125 199.42578125 129.6328125 201.3125 128.125 C203.97623289 125.93386488 205.96130525 123.78979281 208 121 C208.66 121 209.32 121 210 121 C210.33 120.01 210.66 119.02 211 118 C211.66 118 212.32 118 213 118 C213.4021875 117.1028125 213.4021875 117.1028125 213.8125 116.1875 C214.99917406 114.00152146 216.09599113 112.58667406 218 111 C218.66 111 219.32 111 220 111 C220 110.34 220 109.68 220 109 C220.66 109 221.32 109 222 109 C222 108.34 222 107.68 222 107 C224.375 104.375 224.375 104.375 227 102 C227.66 102 228.32 102 229 102 C229.309375 101.1646875 229.309375 101.1646875 229.625 100.3125 C231.51040088 97.14159851 234.15359359 95.31270521 237 93 C237.66 92.01 238.32 91.02 239 90 C239.66 90 240.32 90 241 90 C241.4021875 89.1028125 241.4021875 89.1028125 241.8125 88.1875 C242.99917406 86.00152146 244.09599113 84.58667406 246 83 C246.66 83 247.32 83 248 83 C248 82.34 248 81.68 248 81 C248.66 81 249.32 81 250 81 C250.33 80.01 250.66 79.02 251 78 C251.66 78 252.32 78 253 78 C253.3403125 77.1646875 253.3403125 77.1646875 253.6875 76.3125 C255.37550036 73.33840412 257.46676517 71.27991135 260 69 C260.66 69 261.32 69 262 69 C262.33 68.01 262.66 67.02 263 66 C263.66 66 264.32 66 265 66 C265.4021875 65.1028125 265.4021875 65.1028125 265.8125 64.1875 C266.99917406 62.00152146 268.09599113 60.58667406 270 59 C270.66 59 271.32 59 272 59 C272 58.34 272 57.68 272 57 C272.66 57 273.32 57 274 57 C274.33 56.01 274.66 55.02 275 54 C276.485 52.7934375 276.485 52.7934375 278 51.5625 C280.99969152 49.00026349 281.39054043 48.58819321 282 45 C281.16855469 44.59007812 280.33710938 44.18015625 279.48046875 43.7578125 C277.85044922 42.94957031 277.85044922 42.94957031 276.1875 42.125 C275.10855469 41.59132812 274.02960938 41.05765625 272.91796875 40.5078125 C270 39 270 39 267 37 C267 36.01 267 35.02 267 34 C275.71092437 31.99634529 284.40769868 30.38249076 293.24926758 29.09057617 C296.99923296 28.53024565 300.64991832 27.87671711 304.3203125 26.91796875 C308.14992662 25.96259792 311.09194085 25.8371642 315 26 C314.42531026 33.57852327 313.12410968 40.88082506 311.5625 48.3125 C309.8074644 56.85158017 308.15146189 65.35544284 307 74 C305.19140625 73.8671875 305.19140625 73.8671875 303 73 C301.40234375 70.3828125 301.40234375 70.3828125 299.9375 67.125 C298.27134909 63.45681629 296.93106076 60.74663104 294 58 C292.76697144 59.23302856 292.76697144 59.23302856 291.5090332 60.4909668 C260.33935547 91.66064453 229.16967773 122.83032227 198 154 C212.34028595 161.61181627 226.7111124 169.09748493 241.4375 175.9375 C247.95320812 178.963873 254.29706272 182.23851615 260.62255859 185.64208984 C266.22815834 188.63887518 271.92792474 191.37661016 277.69311523 194.05078125 C283.85079118 196.91079155 289.9247732 199.91899746 295.984375 202.98046875 C298.79674415 204.40125762 301.62052259 205.79577969 304.453125 207.17578125 C305.18265381 207.53349609 305.91218262 207.89121094 306.66381836 208.25976562 C308.06075932 208.94418892 309.45990746 209.62413185 310.86157227 210.29882812 C315.84007628 212.75017598 318.2383872 214.06346013 320.28125 219.2578125 C320.69546688 220.54433711 321.10135243 221.83356618 321.5 223.125 C321.83124878 224.13433594 321.83124878 224.13433594 322.16918945 225.1640625 C323.0962966 228.00514224 323.9606151 230.83037914 324.63671875 233.7421875 C326.10092471 239.74439348 328.99170679 242.03789412 334.1484375 245.30078125 C335.08945312 245.86152344 336.03046875 246.42226563 337 247 C339.04538441 248.26484099 341.08715124 249.53555342 343.125 250.8125 C344.05570312 251.37582031 344.98640625 251.93914062 345.9453125 252.51953125 C346.62335938 253.00808594 347.30140625 253.49664062 348 254 C348 254.66 348 255.32 348 256 C348.79857422 256.12761719 348.79857422 256.12761719 349.61328125 256.2578125 C352.87085475 257.2708059 355.35108379 258.9886623 358.1875 260.875 C359.25355469 261.57367188 360.31960938 262.27234375 361.41796875 262.9921875 C364 265 364 265 365 268 C362.02640551 269.48679725 359.33700821 269.11112605 356.0234375 269.09765625 C355.33819 269.0962413 354.6529425 269.09482635 353.94692993 269.09336853 C351.75624239 269.08776675 349.5656567 269.07521406 347.375 269.0625 C345.89062648 269.05748522 344.40625135 269.05292228 342.921875 269.04882812 C339.28121685 269.03779677 335.64061836 269.02053099 332 269 C331.84144531 268.37351562 331.68289063 267.74703125 331.51953125 267.1015625 C330.2920475 262.01840154 330.2920475 262.01840154 326.6640625 258.66796875 C325.78492188 258.44753906 324.90578125 258.22710937 324 258 C322.08536985 256.83352365 320.21075099 255.59954856 318.375 254.3125 C317.43398438 253.66925781 316.49296875 253.02601563 315.5234375 252.36328125 C310.89852795 248.03190311 309.85548531 242.60555764 308.56713867 236.64233398 C306.89045295 229.18987332 306.89045295 229.18987332 302.0078125 223.5625 C299.03292008 222.10655265 296.1766552 220.92715774 293 220 C293.32871094 220.95132813 293.65742188 221.90265625 293.99609375 222.8828125 C298.27576286 235.42534597 302.07677695 248.09973812 305.8515625 260.80078125 C307.27495465 265.58248925 308.7084147 270.36081638 310.1640625 275.1328125 C310.47553223 276.15391113 310.78700195 277.17500977 311.10791016 278.22705078 C311.90764196 280.71291664 312.79496836 283.13306404 313.75 285.5625 C316.60537277 294.06620579 315.0273482 302.52313363 313 311 C312.67669664 312.4058627 312.35504266 313.81210588 312.03515625 315.21875 C311.87619873 315.91524658 311.71724121 316.61174316 311.5534668 317.3293457 C309.97672504 324.30041035 308.49131929 331.2849525 307.1875 338.3125 C307.05158447 339.01117188 306.91566895 339.70984375 306.77563477 340.4296875 C305.57180877 347.14810481 306.8642028 350.97069902 309.93432617 356.82055664 C314.28236843 365.22024788 316.17013424 371.45669204 315 381 C314.77851146 383.03514163 314.55717165 385.07029945 314.3359375 387.10546875 C313.84030009 391.44445872 313.32241223 395.77929464 312.75390625 400.109375 C312.63345947 401.02686523 312.5130127 401.94435547 312.38891602 402.88964844 C312 405 312 405 311 406 C308.73008113 406.09439978 306.45718033 406.11742226 304.18530273 406.11352539 C303.11706772 406.11374443 303.11706772 406.11374443 302.0272522 406.1139679 C299.66266888 406.1132687 297.29816339 406.10547606 294.93359375 406.09765625 C293.29834537 406.09579209 291.66309643 406.09436818 290.02784729 406.09336853 C285.71565215 406.08954318 281.40349048 406.07971275 277.09130859 406.06866455 C272.69434054 406.0584508 268.29736711 406.05387099 263.90039062 406.04882812 C255.26691169 406.03809049 246.63346 406.02101387 238 406 C238.14688862 404.55257126 238.29770657 403.10554089 238.45019531 401.65869141 C238.53376282 400.852836 238.61733032 400.04698059 238.70343018 399.21670532 C239.03852538 396.71204283 239.70082287 394.67114995 240.75 392.375 C243.1393031 386.84050519 244.93936466 381.15905936 246.75390625 375.41796875 C249.06578341 369.0766129 249.06578341 369.0766129 251 367 C254.04186168 366.57850665 256.94974171 366.71223978 260 367 C260.00629355 363.45672944 259.94647517 359.917488 259.875 356.375 C259.87886719 354.87646484 259.87886719 354.87646484 259.8828125 353.34765625 C259.75310438 348.45117472 259.60811544 344.94005292 256.1953125 341.2265625 C253.37137301 338.76381182 253.37137301 338.76381182 250.984375 339.13598633 C248.50063407 340.21742815 247.61044718 341.39174829 246.0546875 343.59765625 C245.53519531 344.31630859 245.01570313 345.03496094 244.48046875 345.77539062 C243.95066406 346.53013672 243.42085938 347.28488281 242.875 348.0625 C241.81567377 349.55749637 240.75085007 351.04861767 239.6796875 352.53515625 C239.21288574 353.199104 238.74608398 353.86305176 238.26513672 354.54711914 C237.8476416 355.02656982 237.43014648 355.50602051 237 356 C236.34 356 235.68 356 235 356 C234.59587891 356.86625 234.59587891 356.86625 234.18359375 357.75 C232.9833874 360.03158039 231.63074953 361.95688611 230.0625 364 C229.55847656 364.66 229.05445313 365.32 228.53515625 366 C227.5166091 367.32696219 226.46278357 368.62761342 225.375 369.8984375 C223.67342407 372.49914162 223.35481546 374.55388231 222.9375 377.625 C222.13289495 383.12876903 221.12235511 388.55361698 220 394 C207.81358985 394.88242567 195.67308301 395.18634472 183.45581055 395.18530273 C180.51402265 395.18753682 177.57258365 395.20591249 174.63085938 395.22460938 C172.7552096 395.22753582 170.87955807 395.22952561 169.00390625 395.23046875 C168.12698624 395.23765427 167.25006622 395.24483978 166.34657288 395.25224304 C160.22888711 395.22888711 160.22888711 395.22888711 158 393 C160.44782971 386.07408182 163.07806418 379.24119778 165.85131836 372.44067383 C167.29420479 368.87278411 168.57328257 365.30778182 169.6875 361.625 C170.120625 360.42875 170.55375 359.2325 171 358 C174 357 174 357 176.41796875 357.17578125 C179.70905157 357.33824655 181.90211721 357.17651833 185 356 C188.50434871 351.69498884 190.67636882 347.01817063 193 342 C193.85068943 340.47721892 194.70401884 338.95590206 195.5625 337.4375 C197.17466469 333.58232356 197.19339539 332.86354947 196 329 C194.70965412 326.3412288 193.24140437 323.80022653 191.75 321.25 C191.34467041 320.54206299 190.93934082 319.83412598 190.52172852 319.10473633 C188.79091503 316.08230198 187.04119457 313.07098287 185.29296875 310.05859375 C184.84566406 309.27613281 184.39835937 308.49367188 183.9375 307.6875 C183.55464844 307.03136719 183.17179687 306.37523437 182.77734375 305.69921875 C182 304 182 304 182 301 C174.18149469 303.7226228 166.45449539 306.57919012 158.77832031 309.68457031 C153.93581377 311.63821038 149.07172757 313.52812045 144.1875 315.375 C143.49930176 315.63788818 142.81110352 315.90077637 142.10205078 316.17163086 C137.23663582 318 137.23663582 318 135 318 C134.34 319.32 133.68 320.64 133 322 C132.34 322 131.68 322 131 322 C130.34 323.32 129.68 324.64 129 326 C128.34 326 127.68 326 127 326 C126.67 326.99 126.34 327.98 126 329 C124.38143873 330.713422 122.70338399 332.37087798 121 334 C119.91658414 335.07803577 118.83601513 336.15893769 117.7578125 337.2421875 C81 374 81 374 78.3125 376.5625 C71.78423033 383.44364912 71.8721843 393.86199758 71.24609375 402.8828125 C71 405 71 405 70 406 C67.69946165 406.09443335 65.39597827 406.11742128 63.09350586 406.11352539 C62.37159561 406.11367142 61.64968536 406.11381744 60.90589905 406.1139679 C58.50885053 406.11326869 56.11187877 406.10547595 53.71484375 406.09765625 C52.05717511 406.0957921 50.39950593 406.09436818 48.74183655 406.09336853 C44.37045786 406.08954312 39.99911219 406.07971265 35.62774658 406.06866455 C31.17045539 406.05845092 26.71315889 406.05387101 22.25585938 406.04882812 C13.50389107 406.0380904 4.75194964 406.02101371 -4 406 C-1.99698188 396.52741681 -1.99698188 396.52741681 -0.4140625 392.3515625 C-0.12474854 391.57852783 0.16456543 390.80549316 0.46264648 390.0090332 C0.76372314 389.22230225 1.0647998 388.43557129 1.375 387.625 C1.99885599 385.96490314 2.62255457 384.30474713 3.24609375 382.64453125 C3.54628418 381.85127441 3.84647461 381.05801758 4.15576172 380.24072266 C5.27379291 377.27331655 6.35848764 374.29428684 7.4375 371.3125 C7.74558594 370.46300781 8.05367187 369.61351562 8.37109375 368.73828125 C8.57863281 368.16464844 8.78617188 367.59101563 9 367 C10.35931641 367.06574219 10.35931641 367.06574219 11.74609375 367.1328125 C19.14983505 367.17648593 19.14983505 367.17648593 25.65234375 364.05859375 C27.9533466 361.47451497 29.99032808 358.81587752 32 356 C33.36741562 354.28558981 34.74224153 352.57705957 36.125 350.875 C36.77855469 350.04613281 37.43210938 349.21726562 38.10546875 348.36328125 C39.83182322 346.20978753 41.60755047 344.12802924 43.4375 342.0625 C43.99566406 341.42441406 44.55382812 340.78632813 45.12890625 340.12890625 C46.54132649 338.52187278 47.9683863 336.92768932 49.40234375 335.33984375 C50.21832031 334.40269531 51.03429687 333.46554687 51.875 332.5 C52.63554687 331.6440625 53.39609375 330.788125 54.1796875 329.90625 C56.64237378 326.42835483 56.64237378 326.42835483 57 319 C50.73 319 44.46 319 38 319 C37.67 318.01 37.34 317.02 37 316 C35.6846659 315.29848848 34.34882408 314.63474075 33 314 C31.25 312.5 31.25 312.5 30 311 C30 310.34 30 309.68 30 309 C29.34 309 28.68 309 28 309 C26.34375 307.390625 26.34375 307.390625 24.5 305.25 C23.8915625 304.55390625 23.283125 303.8578125 22.65625 303.140625 C21 301 21 301 19.96875 298.796875 C19.0726576 296.64367081 19.0726576 296.64367081 16 296 C14.2109375 294.2578125 14.2109375 294.2578125 12.375 292.125 C11.45847656 291.07699219 11.45847656 291.07699219 10.5234375 290.0078125 C9 288 9 288 8 285 C5.99983534 283.79117904 5.99983534 283.79117904 4 283 C4.00112793 282.39003174 4.00225586 281.78006348 4.00341797 281.15161133 C3.99126431 278.37080026 3.93356916 275.59270493 3.875 272.8125 C3.87757813 271.85279297 3.88015625 270.89308594 3.8828125 269.90429688 C3.86805794 264.8015901 3.86805794 264.8015901 1.73168945 260.34912109 C-0.03984191 258.85962295 -0.03984191 258.85962295 -3 257 C-4.22378085 255.69988675 -5.41675108 254.36937702 -6.5625 253 C-9.68370531 249.34490431 -12.84076109 245.72844185 -16.60546875 242.71484375 C-20.00887577 239.81265107 -21.38176646 237.75251764 -21.875 233.25 C-22.07816641 228.91141412 -22.01652208 224.56578234 -21.83984375 220.2265625 C-22.02029705 217.71782148 -22.7440703 216.15724395 -24 214 C-24.66 214 -25.32 214 -26 214 C-26 213.34 -26 212.68 -26 212 C-26.99 211.67 -27.98 211.34 -29 211 C-29 210.34 -29 209.68 -29 209 C-29.66 209 -30.32 209 -31 209 C-31.12246094 209.57234375 -31.24492188 210.1446875 -31.37109375 210.734375 C-32.02762868 213.09953191 -32.93723512 215.07206797 -34.0625 217.25 C-34.42472656 217.95640625 -34.78695312 218.6628125 -35.16015625 219.390625 C-35.57587891 220.18726563 -35.57587891 220.18726563 -36 221 C-36.66 221 -37.32 221 -38 221 C-38.103125 221.70125 -38.20625 222.4025 -38.3125 223.125 C-39 226 -39 226 -40.6875 229 C-42.31773668 231.85218127 -42.31773668 231.85218127 -41.30859375 234.36328125 C-39.89756604 237.20639678 -38.25432531 239.63146291 -36.375 242.1875 C-33 246.78163265 -33 246.78163265 -33 249 C-32.34 249 -31.68 249 -31 249 C-29.625 250.9140625 -29.625 250.9140625 -28 253.625 C-25.87947285 257.0888272 -23.70716845 260.45186205 -21.28125 263.70703125 C-20.82105469 264.32690918 -20.36085938 264.94678711 -19.88671875 265.58544922 C-18.97220427 266.80684127 -18.04787998 268.02095771 -17.11328125 269.22705078 C-13.97576759 273.44459318 -13.97576759 273.44459318 -14.09765625 276.23828125 C-15.41880306 278.81766312 -17.04619403 280.86857531 -19 283 C-19.66 283 -20.32 283 -21 283 C-21 283.66 -21 284.32 -21 285 C-21.66 285 -22.32 285 -23 285 C-23.4021875 285.86625 -23.4021875 285.86625 -23.8125 286.75 C-25 289 -25 289 -28 293 C-22.72 293.33 -17.44 293.66 -12 294 C-12 313.47 -12 332.94 -12 353 C-15.85246434 354.28415478 -18.47617973 353.29131642 -22.25 352.25 C-29.15583991 350.42310443 -36.06719071 348.93576091 -43.0859375 347.61328125 C-46 347 -46 347 -48 346 C-48.04759962 344.33401319 -48.0370279 342.6662553 -48 341 C-48.39349414 336.05593656 -49.39816476 333.95309325 -53.125 330.6875 C-54.5235608 329.57473206 -55.92300646 328.46298149 -57.33300781 327.36474609 C-60.71790835 324.59356947 -63.83215505 321.51367802 -67 318.5 C-68.28909394 317.27852911 -69.58059384 316.05959005 -70.875 314.84375 C-71.42929688 314.31974609 -71.98359375 313.79574219 -72.5546875 313.25585938 C-73.9958869 311.89827417 -73.9958869 311.89827417 -76 311 C-76 310.34 -76 309.68 -76 309 C-76.639375 308.731875 -77.27875 308.46375 -77.9375 308.1875 C-80 307 -80 307 -81 304 C-81.66 303.67 -82.32 303.34 -83 303 C-85 302 -85 302 -86 299 C-84.96276617 296.57372204 -83.86512616 294.32017251 -82.625 292 C-81.87552355 290.55446227 -81.12821539 289.10779875 -80.3828125 287.66015625 C-79.9899707 286.89977051 -79.59712891 286.13938477 -79.19238281 285.35595703 C-77.20345331 281.4261516 -75.35945226 277.42973429 -73.5 273.4375 C-70.12353801 266.23257992 -66.52984924 259.18756249 -62.7265625 252.19921875 C-59.24883946 246.56399309 -59.24883946 246.56399309 -58.1875 240.3125 C-58.9725955 237.7729552 -58.9725955 237.7729552 -61 235 C-60.812727 230.78635747 -59.65888821 228.1830179 -57.21875 224.79296875 C-55.14853912 221.74737005 -53.49770784 218.47922785 -51.79296875 215.21875 C-50.47387285 212.85069984 -49.13794708 210.69344993 -47.61328125 208.46875 C-40.3329185 197.44420069 -39.89089494 187.99833217 -41 175 C-46.42464917 180.28253855 -46.42464917 180.28253855 -51.375 186 C-51.91125 186.66 -52.4475 187.32 -53 188 C-53.66 188 -54.32 188 -55 188 C-55 188.66 -55 189.32 -55 190 C-57.9010573 193.08015825 -60.63642604 193.38719543 -64.7624054 193.5194397 C-65.50725693 193.52591522 -66.25210846 193.53239075 -67.01953125 193.5390625 C-67.79632736 193.55141937 -68.57312347 193.56377625 -69.37345886 193.57650757 C-71.0149281 193.59604531 -72.65651401 193.60730091 -74.2980957 193.61083984 C-76.79514854 193.62490228 -79.28715966 193.69221305 -81.78320312 193.76171875 C-93.41749037 193.92072468 -93.41749037 193.92072468 -97.56933594 191.50512695 C-99.30178269 189.76142159 -100.60981756 188.01784859 -102 186 C-103.1790795 184.94551355 -104.38521965 183.91990257 -105.625 182.9375 C-108.82880551 180.25342294 -111.32292595 177.21248886 -114 174 C-115.14846224 172.97914468 -116.31621922 171.97968065 -117.5 171 C-120.82590623 168.19923686 -123.574794 165.637809 -126 162 C-126 157.45655913 -124.33708156 154.7752856 -122 151 C-121.33015231 149.19141123 -120.66279372 147.38183751 -120.01171875 145.56640625 C-118.13683324 140.81042255 -115.87430445 136.22210703 -113.69140625 131.6015625 C-112.10332914 128.22002186 -110.59565056 124.81510591 -109.11328125 121.38671875 C-108.18822733 119.40353298 -107.18726121 117.45596959 -106.16796875 115.51953125 C-105.84248047 114.89828369 -105.51699219 114.27703613 -105.18164062 113.63696289 C-104.22977793 111.83024709 -103.26173421 110.03208411 -102.29296875 108.234375 C-100.86083188 104.65186947 -100.89705238 103.59246786 -102 100 C-103.35035081 98.03235507 -103.35035081 98.03235507 -105.1328125 96.29296875 C-105.77476563 95.62330078 -106.41671875 94.95363281 -107.078125 94.26367188 C-108.09132813 93.2359668 -108.09132813 93.2359668 -109.125 92.1875 C-110.44144866 90.82812367 -111.75655669 89.46744774 -113.0703125 88.10546875 C-113.72032227 87.43177246 -114.37033203 86.75807617 -115.04003906 86.06396484 C-123.79383924 76.84565061 -123.79383924 76.84565061 -126 72 C-126.66 72 -127.32 72 -128 72 C-130.83020901 67.75468649 -129.66477718 65.20520274 -128.75244141 60.35253906 C-127.53441172 54.92554891 -125.8959606 49.66476427 -124.1875 44.375 C-123.46797786 42.0996132 -122.75053941 39.82356648 -122.03515625 37.546875 C-121.51332764 35.88688477 -121.51332764 35.88688477 -120.98095703 34.19335938 C-119.37750906 28.97357355 -117.93731426 23.71145071 -116.54760742 18.43115234 C-115.6532988 15.08932611 -114.71674349 12.01590073 -113 9 C-112.34 9 -111.68 9 -111 9 C-109.36346798 12.94661321 -107.72776378 16.89356825 -106.09277344 20.84082031 C-105.53830454 22.17912705 -104.98362292 23.51734567 -104.42871094 24.85546875 C-103.88979681 26.15508837 -103.35117953 27.45483112 -102.81286621 28.75469971 C-102.28172711 30.03716765 -101.7499082 31.31935426 -101.21740723 32.60125732 C-99.71087497 36.23851743 -98.2680364 39.89428514 -96.859375 43.5703125 C-93.21174862 52.67621013 -86.10104349 61.36292375 -78 67 C-74.18881908 67.99868055 -71.63927541 67.35858085 -68 66 C-67.29875 65.78730469 -66.5975 65.57460937 -65.875 65.35546875 C-62.60570994 64.32780588 -59.3920001 63.14118762 -56.16796875 61.97998047 C-45.79962981 58.60901659 -36.06134469 58.43030614 -25.25 58.4375 C-22.65384668 58.43388888 -20.05835469 58.42445094 -17.46234131 58.39674377 C-15.86204506 58.37996715 -14.26152776 58.37707081 -12.66119385 58.38975525 C-10.26711642 58.40121423 -10.26711642 58.40121423 -7 58 C-6.34 57.01 -5.68 56.02 -5 55 C-4.34 55 -3.68 55 -3 55 C-2.67 54.01 -2.34 53.02 -2 52 C-1.34 52 -0.68 52 0 52 C0.226875 51.443125 0.45375 50.88625 0.6875 50.3125 C2 48 2 48 4.6875 45.875 C7.16735045 43.3607946 7.16735045 43.3607946 7.11474609 41.0546875 C6.1783051 33.31387928 4.58881135 25.74172147 2.9375 18.125 C2.37929425 15.54524435 1.82693728 12.96443827 1.27734375 10.3828125 C1.03234131 9.25246582 0.78733887 8.12211914 0.53491211 6.95751953 C0 4 0 4 0 0 Z M22 49 C20.9578443 50.18707084 19.91630907 51.37468641 18.875 52.5625 C18.23949219 53.28695312 17.60398437 54.01140625 16.94921875 54.7578125 C14.68599562 57.36119942 12.46709509 59.99985002 10.26171875 62.65234375 C9 64 9 64 7 65 C7 65.66 7 66.32 7 67 C6.34 67 5.68 67 5 67 C4.30181152 67.9792041 3.60362305 68.9584082 2.88427734 69.96728516 C0.57521784 72.82992162 0.1643756 72.97166529 -3.74755859 73.64599609 C-5.21503459 73.63359735 -6.68245748 73.59083266 -8.1484375 73.5234375 C-9.79653696 73.50646813 -11.44465039 73.49081678 -13.09277344 73.47631836 C-14.38628723 73.44971634 -14.38628723 73.44971634 -15.70593262 73.4225769 C-30.21366996 73.16397226 -43.74616413 74.02349037 -57.75 77.9375 C-58.40393738 78.11907654 -59.05787476 78.30065308 -59.73162842 78.48773193 C-67.68009202 80.49553781 -67.68009202 80.49553781 -75 84 C-76.17840672 86.02652189 -76.17840672 86.02652189 -76.94921875 88.45703125 C-78.98768802 93.99598262 -81.35164671 99.32473756 -83.8125 104.6875 C-84.24828369 105.64068115 -84.68406738 106.5938623 -85.13305664 107.57592773 C-86.41915221 110.38528633 -87.70916501 113.19281655 -89 116 C-89.36125977 116.78858398 -89.72251953 117.57716797 -90.09472656 118.38964844 C-91.03875542 120.44893156 -91.98700552 122.50619464 -92.9375 124.5625 C-93.72447266 126.26599609 -93.72447266 126.26599609 -94.52734375 128.00390625 C-96 131 -96 131 -97.57421875 133.6171875 C-98.9398375 135.89945445 -99.92667573 138.08259007 -100.875 140.5625 C-103.15294504 146.41628899 -105.57146299 152.20734205 -108 158 C-104.81869489 162.04893378 -101.56297783 165.3761398 -97.55078125 168.60546875 C-96 170 -96 170 -94 173 C-93.34 173 -92.68 173 -92 173 C-91.5359375 173.9590625 -91.5359375 173.9590625 -91.0625 174.9375 C-90.1654837 176.93610821 -90.1654837 176.93610821 -89 178 C-87.21928754 178.08726223 -85.4351686 178.10699041 -83.65234375 178.09765625 C-82.57275391 178.09443359 -81.49316406 178.09121094 -80.38085938 178.08789062 C-79.24455078 178.07951172 -78.10824219 178.07113281 -76.9375 178.0625 C-75.79732422 178.05798828 -74.65714844 178.05347656 -73.48242188 178.04882812 C-70.65489649 178.03699747 -67.8274736 178.0205141 -65 178 C-64.67 177.01 -64.34 176.02 -64 175 C-63.34 175 -62.68 175 -62 175 C-62 174.34 -62 173.68 -62 173 C-61.34 173 -60.68 173 -60 173 C-60 172.34 -60 171.68 -60 171 C-59.0409375 170.5978125 -59.0409375 170.5978125 -58.0625 170.1875 C-55.66868314 169.11332248 -55.66868314 169.11332248 -55 166 C-53.6846659 165.29848848 -52.34882408 164.63474075 -51 164 C-49.2488427 162.5833253 -49.2488427 162.5833253 -48 161 C-48 160.34 -48 159.68 -48 159 C-47.46375 158.79375 -46.9275 158.5875 -46.375 158.375 C-44.03687312 157.0213476 -43.10095515 155.95783674 -41.41015625 153.92578125 C-39.57225771 152.05422157 -38.53245127 151.10497617 -35.93945312 150.59375 C-33.6363646 150.58157508 -31.36164091 150.67996688 -29.0625 150.8125 C-22.62783733 150.91110474 -22.62783733 150.91110474 -17.33984375 147.61328125 C-15.60658126 144.79810969 -14.25382064 142.05394884 -13 139 C-12.01 137.515 -12.01 137.515 -11 136 C-8.22737745 135.61605333 -5.65676472 135.39657752 -2.875 135.3125 C-2.12089844 135.27833984 -1.36679688 135.24417969 -0.58984375 135.20898438 C1.27291201 135.12645722 3.13643326 135.06155289 5 135 C3.63067876 139.82557593 1.47500842 143.69230686 -1.3125 147.8125 C-4.07071419 151.90052877 -6.36455645 155.73461371 -8.25 160.3125 C-9.27075195 162.26293945 -9.27075195 162.26293945 -11 164 C-14.11230469 164.57885742 -14.11230469 164.57885742 -17.671875 164.73046875 C-18.85362305 164.79000732 -20.03537109 164.8495459 -21.25292969 164.91088867 C-22.15946289 164.94029541 -23.06599609 164.96970215 -24 165 C-24.20455552 169.49932223 -24.32806276 173.99743915 -24.4375 178.5 C-24.49615234 179.7684375 -24.55480469 181.036875 -24.61523438 182.34375 C-24.78477069 190.69718442 -24.78477069 190.69718442 -20.72265625 197.71875 C-18.31133773 200.03963192 -15.69796172 202.02320915 -13 204 C-12.61020462 203.61020462 -12.22040924 203.22040924 -11.81880188 202.81880188 C19.78746541 171.21253459 51.39373271 139.60626729 83 108 C81.6446674 105.46326712 81.6446674 105.46326712 80 103 C79.34 103 78.68 103 78 103 C77.67 102.01 77.34 101.02 77 100 C76.34 100 75.68 100 75 100 C75 99.34 75 98.68 75 98 C74.34 98 73.68 98 73 98 C73 97.34 73 96.68 73 96 C72.34 96 71.68 96 71 96 C70.5978125 95.0409375 70.5978125 95.0409375 70.1875 94.0625 C69.11332248 91.66868314 69.11332248 91.66868314 66 91 C66 90.34 66 89.68 66 89 C63.66666667 86.33333333 63.66666667 86.33333333 61 84 C60.34 84 59.68 84 59 84 C59 83.34 59 82.68 59 82 C58.34 82 57.68 82 57 82 C57 81.34 57 80.68 57 80 C48.09 80 39.18 80 30 80 C28.35 83.3 26.7 86.6 25 90 C21.88671875 92.0703125 21.88671875 92.0703125 18.6875 93.125 C17.61886719 93.49882813 16.55023438 93.87265625 15.44921875 94.2578125 C14.64097656 94.50273438 13.83273438 94.74765625 13 95 C17.66007905 100.58764256 22.60863546 105.79172605 27.75 110.9375 C28.51699219 111.71673828 29.28398437 112.49597656 30.07421875 113.29882812 C30.80769531 114.03423828 31.54117188 114.76964844 32.296875 115.52734375 C32.96041992 116.19499756 33.62396484 116.86265137 34.30761719 117.55053711 C35.88179543 119.21683119 35.88179543 119.21683119 38 119 C38.66 120.65 39.32 122.3 40 124 C24.16 124 8.32 124 -8 124 C-8 119.05 -8 114.1 -8 109 C-4.04 109 -0.08 109 4 109 C1.69273561 104.64463971 1.69273561 104.64463971 -2.328125 102.19140625 C-5.47817418 101.96574483 -7.19569399 102.59003285 -10.0625 103.875 C-13.11304614 105.21930847 -15.73229389 106.18307347 -19 107 C-19.33 101.72 -19.66 96.44 -20 91 C-18.84242188 90.72800781 -17.68484375 90.45601562 -16.4921875 90.17578125 C-9.44233579 88.40944137 -2.73552331 85.70112642 4 83 C5.04027344 82.58492187 6.08054687 82.16984375 7.15234375 81.7421875 C11.38516377 79.86507789 13.51773894 78.83591916 15.875 74.75 C16.431875 72.89375 16.431875 72.89375 17 71 C17.65235261 69.57668522 18.32002159 68.16032558 19 66.75 C21.283542 61.66472762 22.6675437 56.40048576 24 51 C23.01 50.01 23.01 50.01 22 49 Z M-111 55 C-112.82272725 58.45442632 -113.50432337 61.10119244 -113 65 C-109.9535939 69.7954634 -105.59750319 73.6419408 -101.49072266 77.51855469 C-100 79 -100 79 -98.19921875 81.4140625 C-97.80347656 81.93742187 -97.40773438 82.46078125 -97 83 C-96.34 83 -95.68 83 -95 83 C-94.67 83.99 -94.34 84.98 -94 86 C-90.95109598 85.31782938 -90.95109598 85.31782938 -89.75 83.1875 C-88.83594102 80.52149464 -89.01715415 79.62092228 -90 77 C-91.76248102 74.87291707 -91.76248102 74.87291707 -94 72.8125 C-94.804375 72.03132813 -95.60875 71.25015625 -96.4375 70.4453125 C-97.283125 69.63835937 -98.12875 68.83140625 -99 68 C-100.67353432 66.40299926 -102.34052518 64.79910535 -104 63.1875 C-104.7425 62.47980469 -105.485 61.77210937 -106.25 61.04296875 C-108.03838244 58.95519193 -108.61363492 57.68644468 -109 55 C-109.66 55 -110.32 55 -111 55 Z M185 166 C178.21418782 172.739551 171.43373162 179.4844309 164.66012573 186.23624992 C161.51498377 189.37093736 158.36800127 192.50373028 155.21679688 195.63232422 C152.17799478 198.64945737 149.14404908 201.67139488 146.11346436 204.69678116 C144.95413243 205.85240661 143.79303653 207.00626511 142.63018799 208.1583519 C141.00661993 209.76748412 139.38933581 211.38268292 137.7734375 212.99951172 C136.84966309 213.91884491 135.92588867 214.8381781 134.97412109 215.78536987 C132.77819657 217.75436382 132.77819657 217.75436382 133 220 C132.40995178 220.26538574 131.81990356 220.53077148 131.2119751 220.80419922 C128.93479019 222.03525263 127.43578188 223.31062516 125.60839844 225.1328125 C124.9680365 225.76687012 124.32767456 226.40092773 123.66790771 227.05419922 C122.98859192 227.73756348 122.30927612 228.42092773 121.609375 229.125 C120.90476135 229.8277002 120.20014771 230.53040039 119.47418213 231.25439453 C117.98911647 232.73810104 116.50656619 234.22432892 115.02636719 235.71289062 C112.75155675 237.99843591 110.4662464 240.27309017 108.1796875 242.546875 C106.73894132 243.98894219 105.29881535 245.43162935 103.859375 246.875 C103.17196228 247.55836426 102.48454956 248.24172852 101.77630615 248.94580078 C101.14855286 249.5798584 100.52079956 250.21391602 99.87402344 250.8671875 C99.31761169 251.42519043 98.76119995 251.98319336 98.18792725 252.55810547 C96.78804606 253.9458983 96.78804606 253.9458983 97 256 C96.43456482 256.2404454 95.86912964 256.48089081 95.28656006 256.72862244 C92.52596539 258.26357365 90.64754795 260.10550782 88.41503906 262.34204102 C87.51440735 263.2395961 86.61377563 264.13715118 85.68585205 265.06190491 C84.71226124 266.04239154 83.73885657 267.02306303 82.765625 268.00390625 C81.76279579 269.00792794 80.75959623 270.01157984 79.75604248 271.01487732 C77.65830228 273.11417909 75.56395797 275.21679106 73.47216797 277.32202148 C70.78480182 280.02643181 68.09084461 282.72415746 65.39456558 285.41967869 C63.32515323 287.48936222 61.25835158 289.56163582 59.19243622 291.63480949 C58.19942322 292.6310133 57.20579576 293.62660499 56.21155548 294.62158394 C54.82763889 296.00765662 53.4474117 297.39741004 52.06738281 298.78735352 C50.88634979 299.97410423 50.88634979 299.97410423 49.68145752 301.18482971 C47.88673834 302.70988572 47.88673834 302.70988572 48 304 C56.25 304 64.5 304 73 304 C73 313.57 73 323.14 73 333 C72.34 333 71.68 333 71 333 C69.68846237 334.46809505 68.45005925 336.00195784 67.25 337.5625 C64.74236852 340.78855875 62.21298211 343.94466538 59.5 347 C56.7866052 349.60521962 56.7866052 349.60521962 57 352 C56.34 352 55.68 352 55 352 C53.41466298 353.71332754 51.90458785 355.49689047 50.4375 357.3125 C49.63183594 358.29863281 48.82617188 359.28476562 47.99609375 360.30078125 C45.86356007 362.89295622 45.86356007 362.89295622 45 366 C44.34 366 43.68 366 43 366 C41.18371224 367.94375954 41.18371224 367.94375954 39.375 370.375 C38.74335938 371.18710937 38.11171875 371.99921875 37.4609375 372.8359375 C35.81349192 374.84109879 35.81349192 374.84109879 36 377 C35.34 377 34.68 377 34 377 C33.58105469 377.64453125 33.16210938 378.2890625 32.73046875 378.953125 C31 381 31 381 28.30078125 381.609375 C27.31464844 381.65578125 26.32851562 381.7021875 25.3125 381.75 C24.31863281 381.80671875 23.32476562 381.8634375 22.30078125 381.921875 C21.16189453 381.96054687 21.16189453 381.96054687 20 382 C19.34 384.97 18.68 387.94 18 391 C30.54 391 43.08 391 56 391 C56.66 387.7 57.32 384.4 58 381 C58.43560916 379.32142229 58.90094094 377.64908546 59.4375 376 C59.66308594 375.278125 59.88867188 374.55625 60.12109375 373.8125 C61 372 61 372 64 370 C64 369.34 64 368.68 64 368 C64.66 368 65.32 368 66 368 C67.634689 366.34551316 67.634689 366.34551316 69.3125 364.25 C72.00520583 361.07427272 74.74802548 358.60157962 78 356 C79.00835072 354.86686654 79.99681588 353.71593604 80.97265625 352.5546875 C86.11839861 346.60664475 91.79151627 341.1769596 97.41235352 335.68359375 C98.82994803 334.29600999 100.24125905 332.90201582 101.65234375 331.5078125 C102.48757568 330.68941895 103.32280762 329.87102539 104.18334961 329.02783203 C106.22241956 327.2054843 106.22241956 327.2054843 106 325 C106.57234375 324.7525 107.1446875 324.505 107.734375 324.25 C110.35010611 322.80683801 112.14773456 321.11783778 114.25 319 C114.95640625 318.29875 115.6628125 317.5975 116.390625 316.875 C118.21710399 315.15889232 118.21710399 315.15889232 118 313 C118.639375 312.690625 119.27875 312.38125 119.9375 312.0625 C121.93610821 311.1654837 121.93610821 311.1654837 123 310 C123.12209924 308.58882298 123.17770872 307.17179541 123.20532227 305.75561523 C123.22526749 304.85475693 123.24521271 303.95389862 123.26576233 303.02574158 C123.28247482 302.04658279 123.29918732 301.06742401 123.31640625 300.05859375 C123.3475779 298.56248314 123.3475779 298.56248314 123.37937927 297.03614807 C123.44498637 293.83667157 123.50381134 290.63711018 123.5625 287.4375 C123.60567462 285.27407961 123.64928855 283.11066794 123.69335938 280.94726562 C123.80067903 275.63160126 123.90242427 270.31585166 124 265 C128.48206302 262.75896849 133.98890121 264 139 264 C139 275.88 139 287.76 139 300 C144.77385687 298.36075642 144.77385687 298.36075642 150.41796875 296.44921875 C151.19132568 296.16546387 151.96468262 295.88170898 152.76147461 295.58935547 C153.56206299 295.29174316 154.36265137 294.99413086 155.1875 294.6875 C156.02611572 294.37699707 156.86473145 294.06649414 157.72875977 293.74658203 C164.22352521 291.32518646 170.63071327 288.73483498 177 286 C183.17202492 283.36827364 189.29957347 280.79601505 195.6953125 278.7578125 C199.40784745 277.53708067 203.05665421 276.14328175 206.71484375 274.76953125 C209 274 209 274 211 274 C211 274.66 211 275.32 211 276 C212.39210784 277.37200427 212.39210784 277.37200427 214.1875 278.75 C216.68658083 280.80390044 218.80487614 282.83842136 220.8125 285.375 C221.534375 286.24125 222.25625 287.1075 223 288 C223.66 288 224.32 288 225 288 C225 288.66 225 289.32 225 290 C225.66 290 226.32 290 227 290 C227 290.66 227 291.32 227 292 C228.65448684 293.634689 228.65448684 293.634689 230.75 295.3125 C233.91535204 297.99943328 236.47506812 300.69146857 239 304 C241.52056045 306.77152212 241.52056045 306.77152212 244 309 C244.66 309 245.32 309 246 309 C246.20625 309.556875 246.4125 310.11375 246.625 310.6875 C248.15881683 313.26710104 250.02351771 314.73942538 252.359375 316.58203125 C254.11361991 318.09820007 255.52611077 319.71193965 257 321.5 C258.92244843 323.82295852 260.6478852 325.53990433 263 327.5 C265.91516549 329.92930457 268.208822 332.43333147 270.60546875 335.3515625 C271.94855357 337.02825074 271.94855357 337.02825074 273.56587219 338.34077454 C275.37655754 340.43566121 275.36524125 341.45822084 275.34057617 344.19604492 C275.34034958 345.03668991 275.34012299 345.8773349 275.33988953 346.74345398 C275.32440567 347.64666885 275.30892181 348.54988373 275.29296875 349.48046875 C275.28872391 350.40845779 275.28447906 351.33644684 275.28010559 352.29255676 C275.26330662 355.25783243 275.22565216 358.2224296 275.1875 361.1875 C275.17245474 363.19725581 275.15876606 365.20702227 275.14648438 367.21679688 C275.11339908 372.14479286 275.06160833 377.07228138 275 382 C270.38 382 265.76 382 261 382 C260.34 384.97 259.68 387.94 259 391 C271.87 391 284.74 391 298 391 C299.88205412 374.06151294 299.78390245 368.90089682 292 356 C289.67820928 351.58859763 290.20157083 348.85504446 291 344 C291.30357422 342.13408203 291.30357422 342.13408203 291.61328125 340.23046875 C291.84403836 338.88241404 292.07721657 337.53477208 292.3125 336.1875 C292.44003662 335.45684326 292.56757324 334.72618652 292.69897461 333.97338867 C293.53193811 329.31800967 294.48319851 324.70394435 295.54052734 320.09448242 C296.0619162 317.81505229 296.56008576 315.53146939 297.0546875 313.24609375 C297.61443628 310.6617095 298.23636705 308.14927396 298.9453125 305.59765625 C301.72599285 293.52364948 296.84678345 282.37886619 293 271 C292.46701067 269.39728076 291.93442085 267.79442857 291.40234375 266.19140625 C290.67521886 264.01099084 289.94425076 261.83225984 289.20117188 259.65722656 C286.98191519 253.12013226 285.11589014 246.49885202 283.26074219 239.85083008 C281.35473366 233.08249082 279.2161891 226.41578295 276.91601562 219.77148438 C275.03372331 214.29898875 275.03372331 214.29898875 274.71044922 211.43286133 C274.22588949 208.85886671 274.22588949 208.85886671 272.02905273 207.54956055 C271.17255127 207.16582275 270.3160498 206.78208496 269.43359375 206.38671875 C268.4811377 205.94763184 267.52868164 205.50854492 266.54736328 205.05615234 C265.5211084 204.60449707 264.49485352 204.1528418 263.4375 203.6875 C261.31852222 202.71590776 259.20003398 201.74324719 257.08203125 200.76953125 C255.5189624 200.06111084 255.5189624 200.06111084 253.92431641 199.33837891 C250.11690701 197.59583271 246.36364769 195.75970923 242.625 193.875 C242.00238281 193.56304687 241.37976563 193.25109375 240.73828125 192.9296875 C235.05769669 190.06582433 229.44065202 187.08085275 223.84423828 184.05615234 C219.64276 181.80137606 215.39935321 179.85133358 211 178 C208.19667728 176.71204248 205.41103191 175.3873793 202.625 174.0625 C198.18019083 171.94999454 193.72787318 169.86600734 189.22802734 167.87280273 C188.4319809 167.51991684 187.63593445 167.16703094 186.81576538 166.80345154 C185.91696152 166.40574303 185.91696152 166.40574303 185 166 Z M-47 256 C-58.09875602 276.00279578 -58.09875602 276.00279578 -67 297 C-65.83593677 298.16406323 -64.67129061 299.32754865 -63.50390625 300.48828125 C-62.4596661 301.53794602 -61.42652024 302.59871848 -60.40234375 303.66796875 C-58.97138652 305.14814809 -57.48847779 306.57767678 -56 308 C-55.34 308 -54.68 308 -54 308 C-53.67 308.99 -53.34 309.98 -53 311 C-51.21229131 312.88750903 -51.21229131 312.88750903 -49.0625 314.6875 C-48.35222656 315.31011719 -47.64195313 315.93273437 -46.91015625 316.57421875 C-45.13014184 318.19938765 -45.13014184 318.19938765 -43 318 C-43 318.66 -43 319.32 -43 320 C-41.66666667 321.66666667 -41.66666667 321.66666667 -40 323 C-39.34 323 -38.68 323 -38 323 C-38 323.66 -38 324.32 -38 325 C-37.360625 325.4125 -36.72125 325.825 -36.0625 326.25 C-33.29641768 328.59697894 -33.31288108 330.48008781 -33 334 C-31.34385343 334.38218767 -29.67542976 334.71395102 -28 335 C-26.47073432 333.47073432 -26.8703765 332.08477821 -26.8671875 329.95703125 C-26.86589844 329.13009766 -26.86460938 328.30316406 -26.86328125 327.45117188 C-26.86908203 326.1450293 -26.86908203 326.1450293 -26.875 324.8125 C-26.87113281 323.96107422 -26.86726563 323.10964844 -26.86328125 322.23242188 C-26.87027933 317.70816396 -27.08194024 313.45186122 -28 309 C-28.61746094 309.03222656 -29.23492187 309.06445312 -29.87109375 309.09765625 C-35.8432728 309.01584558 -38.80276255 307.83593435 -43.0625 303.5625 C-46.7223301 299.55533981 -46.7223301 299.55533981 -48 297 C-48.66 297 -49.32 297 -50 297 C-47.90855329 293.17770084 -46.16653244 290.00820582 -43 287 C-43 286.34 -43 285.68 -43 285 C-42.01 284.67 -41.02 284.34 -40 284 C-38.1070193 281.91255028 -38.1070193 281.91255028 -36.3125 279.4375 C-35.68988281 278.61121094 -35.06726563 277.78492188 -34.42578125 276.93359375 C-33.95527344 276.29550781 -33.48476562 275.65742188 -33 275 C-33.99 273.02 -34.98 271.04 -36 269 C-36.66 269 -37.32 269 -38 269 C-38.20625 268.34 -38.4125 267.68 -38.625 267 C-40.50096465 262.90698622 -43.08488226 259.42505088 -46 256 C-46.33 256 -46.66 256 -47 256 Z M205 291 C202.03 292.32 199.06 293.64 196 295 C198.83390779 302.44569168 202.92084793 309.27746793 207.0625 316.0625 C209.09616475 319.45014315 211.10673932 322.84408748 213 326.3125 C213.433125 327.09238281 213.86625 327.87226563 214.3125 328.67578125 C215.24627635 331.83258197 214.47029412 333.09938955 213 336 C212.37544922 337.31484375 212.37544922 337.31484375 211.73828125 338.65625 C208.4723259 345.17026506 205.08347531 351.60459513 201.60546875 358.0078125 C200.25333675 360.5278444 198.95123008 363.05995679 197.6875 365.625 C196 369 196 369 194 372 C191.19327776 372.41727482 188.46419261 372.43946353 185.62890625 372.49609375 C182.88774935 372.76652337 182.88774935 372.76652337 181.15234375 374.84765625 C179.7640003 377.03389787 179.7640003 377.03389787 180 380 C188.58 380 197.16 380 206 380 C207.85893141 376.28213718 208.33835319 374.06836589 208.9375 370.0625 C210.80884737 361.38179964 216.12817245 356.28745389 222 350 C224.40718693 347.32325447 224.40718693 347.32325447 225 344 C225.66 344 226.32 344 227 344 C229.29131106 341.63213161 231.20168032 338.93816953 233.1875 336.3125 C233.75919922 335.59126953 234.33089844 334.87003906 234.91992188 334.12695312 C238.16469016 330.03200166 238.16469016 330.03200166 238.984375 325.046875 C237.73713821 322.45341437 236.56641218 322.16655099 234 321 C233.33333333 319.66666667 232.66666667 318.33333333 232 317 C230.34997172 315.64613064 228.6825613 314.31321858 227 313 C226 311.66666667 225 310.33333333 224 309 C223.34 309 222.68 309 222 309 C221.731875 308.401875 221.46375 307.80375 221.1875 307.1875 C220.00082594 305.00152146 218.90400887 303.58667406 217 302 C216.34 302 215.68 302 215 302 C214.731875 301.360625 214.46375 300.72125 214.1875 300.0625 C213.11332248 297.66868314 213.11332248 297.66868314 210 297 C208.8125 294.9375 208.8125 294.9375 208 293 C207.34 293 206.68 293 206 293 C205.67 292.34 205.34 291.68 205 291 Z " fill="#585758" transform="translate(154,23)"/>
<path d="M0 0 C-4.625 4.875 -4.625 4.875 -8 6 C-8.61904427 8.67645862 -8.61904427 8.67645862 -9 11.8125 C-10.25586938 17.49092016 -10.25586938 17.49092016 -13.4609375 19.68359375 C-18.05709067 21.36556401 -22.09998969 22.17818219 -27 22 C-27.268125 22.61875 -27.53625 23.2375 -27.8125 23.875 C-29 26 -29 26 -32 28 C-32.99 28 -33.98 28 -35 28 C-27.74226099 9.34230022 -27.74226099 9.34230022 -22.625 6.3125 C-15.33009572 3.67124155 -15.33009572 3.67124155 -12.0703125 2.66015625 C-9.85684992 1.99190932 -9.85684992 1.99190932 -7.25 0.8125 C-4.70852877 -0.1052535 -2.68176217 -0.15324355 0 0 Z " fill="#525252" transform="translate(110,125)"/>
<path d="M0 0 C-0.57584432 2.38564077 -1.22227595 4.66682784 -2 7 C-1.05125 7.309375 -0.1025 7.61875 0.875 7.9375 C4 9 4 9 6 10 C6.33 9.34 6.66 8.68 7 8 C8.60448132 12.0112033 7.25156999 15.02442473 6 19 C6 19.66 6 20.32 6 21 C2.01811282 22.71767682 -1.96479403 24.41037341 -6 26 C-6 25.34 -6 24.68 -6 24 C-5.34 24 -4.68 24 -4 24 C-3.67 23.01 -3.34 22.02 -3 21 C-2.01 20.195625 -1.02 19.39125 0 18.5625 C2.99969152 16.00026349 3.39054043 15.58819321 4 12 C3.16855469 11.59007813 2.33710938 11.18015625 1.48046875 10.7578125 C0.39378906 10.21898438 -0.69289063 9.68015625 -1.8125 9.125 C-2.89144531 8.59132813 -3.97039062 8.05765625 -5.08203125 7.5078125 C-8 6 -8 6 -11 4 C-11 3.01 -11 2.02 -11 1 C-7.26562152 0.12132271 -3.83225427 -0.08912219 0 0 Z " fill="#7E7C7D" transform="translate(432,56)"/>
<path d="M0 0 C-0.58476056 7.09406894 -1.63233995 14.01563899 -3 21 C-3.33 21 -3.66 21 -4 21 C-4 16.66666667 -4 12.33333333 -4 8 C-4.63474075 6.65117592 -5.29848848 5.3153341 -6 4 C-6.5775 4.185625 -7.155 4.37125 -7.75 4.5625 C-10.24805283 5.04823249 -11.56904129 4.60773968 -14 4 C-15.0209375 4.2784375 -15.0209375 4.2784375 -16.0625 4.5625 C-17.0215625 4.7790625 -17.0215625 4.7790625 -18 5 C-18.99 4.34 -19.98 3.68 -21 3 C-18.81462633 2.49078672 -16.62657569 1.99305563 -14.4375 1.5 C-12.61025391 1.08234375 -12.61025391 1.08234375 -10.74609375 0.65625 C-7.07777293 0.01362446 -3.71497397 -0.11474823 0 0 Z " fill="#898889" transform="translate(469,49)"/>
<path d="M0 0 C1.65 1.65 3.3 3.3 5 5 C4.67 5.99 4.34 6.98 4 8 C4.66 8.66 5.32 9.32 6 10 C4.35 10 2.7 10 1 10 C0.731875 10.61875 0.46375 11.2375 0.1875 11.875 C-1 14 -1 14 -4 16 C-4.99 16 -5.98 16 -7 16 C-5.56835889 12.34061828 -4.01065704 8.76011932 -2.375 5.1875 C-1.92898437 4.21167969 -1.48296875 3.23585937 -1.0234375 2.23046875 C-0.51683594 1.12638672 -0.51683594 1.12638672 0 0 Z " fill="#6F6F6F" transform="translate(82,137)"/>
<path d="M0 0 C3.59905908 0.55550695 4.99909799 1.74887248 7.25 4.5625 C8.03117188 5.52349609 8.03117188 5.52349609 8.828125 6.50390625 C9.21484375 6.99761719 9.6015625 7.49132812 10 8 C9.67 8.66 9.34 9.32 9 10 C8.01 9.34 7.02 8.68 6 8 C6 7.34 6 6.68 6 6 C5.01 6.495 5.01 6.495 4 7 C3.34444881 9.52733235 3.34444881 9.52733235 3 12 C3.99 12.33 4.98 12.66 6 13 C7.09898702 16.29696105 6.87124444 17.40494903 6.0625 20.6875 C5.86785156 21.49574219 5.67320312 22.30398437 5.47265625 23.13671875 C5.31667969 23.75160156 5.16070312 24.36648437 5 25 C4.67 25 4.34 25 4 25 C3.51826171 22.33377553 3.03955375 19.66706329 2.5625 17 C2.42779297 16.25621094 2.29308594 15.51242188 2.15429688 14.74609375 C1.28016629 9.84243436 0.57906538 4.94735474 0 0 Z " fill="#969397" transform="translate(154,23)"/>
<path d="M0 0 C0.33 0.66 0.66 1.32 1 2 C1.66 2.33 2.32 2.66 3 3 C2.01 3.804375 2.01 3.804375 1 4.625 C-1.31024799 6.89958592 -1.31024799 6.89958592 -1.25 10.25 C-1.12625 11.61125 -1.12625 11.61125 -1 13 C-1.99 13 -2.98 13 -4 13 C-4 12.01 -4 11.02 -4 10 C-4.78375 10.78375 -5.5675 11.5675 -6.375 12.375 C-7.91666667 13.91666667 -9.45833333 15.45833333 -11 17 C-11.99 16.67 -12.98 16.34 -14 16 C-12.625 13.5 -12.625 13.5 -11 11 C-10.34 11 -9.68 11 -9 11 C-8.79375 10.443125 -8.5875 9.88625 -8.375 9.3125 C-7.03153247 7.05303189 -5.94842298 6.0001344 -3.9375 4.375 C-0.99175287 2.32880603 -0.99175287 2.32880603 0 0 Z " fill="#727272" transform="translate(392,114)"/>
<path d="M0 0 C0.33 1.32 0.66 2.64 1 4 C0.34 4 -0.32 4 -1 4 C-1 4.66 -1 5.32 -1 6 C-1.66 6 -2.32 6 -3 6 C-2.938125 6.78375 -2.87625 7.5675 -2.8125 8.375 C-2.874375 9.24125 -2.93625 10.1075 -3 11 C-3.99 11.66 -4.98 12.32 -6 13 C-6 12.34 -6 11.68 -6 11 C-7.99983534 11.79117904 -7.99983534 11.79117904 -10 13 C-10.33 13.99 -10.66 14.98 -11 16 C-11.66 16 -12.32 16 -13 16 C-13.33 16.66 -13.66 17.32 -14 18 C-14.66 17.34 -15.32 16.68 -16 16 C-10.72 10.72 -5.44 5.44 0 0 Z " fill="#616161" transform="translate(208,298)"/>
<path d="M0 0 C1.32 0.33 2.64 0.66 4 1 C3.75 2.875 3.75 2.875 3 5 C0.9375 6.25 0.9375 6.25 -1 7 C-1 8.32 -1 9.64 -1 11 C-3.375 13.625 -3.375 13.625 -6 16 C-6.66 16.66 -7.32 17.32 -8 18 C-8.99 17.01 -9.98 16.02 -11 15 C-7.04 11.04 -3.08 7.08 1 3 C0.67 2.01 0.34 1.02 0 0 Z " fill="#787778" transform="translate(350,83)"/>
<path d="M0 0 C-1.28965176 1.37562854 -2.62689293 2.70766393 -4 4 C-4.66 4 -5.32 4 -6 4 C-5.67 5.32 -5.34 6.64 -5 8 C-11.69807692 5.51923077 -11.69807692 5.51923077 -13.2265625 2.890625 C-13.48179687 2.26671875 -13.73703125 1.6428125 -14 1 C-12.23103898 0.63659714 -10.45973374 0.28459117 -8.6875 -0.0625 C-7.70136719 -0.25972656 -6.71523438 -0.45695312 -5.69921875 -0.66015625 C-3 -1 -3 -1 0 0 Z " fill="#838383" transform="translate(349,72)"/>
<path d="M0 0 C3 1 3 1 4.4375 3.4375 C5.73686139 6.13656023 5.73686139 6.13656023 8.125 6.875 C8.74375 7.24625 9.3625 7.6175 10 8 C10.75 11.625 10.75 11.625 11 15 C10.01 15.495 10.01 15.495 9 16 C5.98490341 13.41045759 4.54137921 10.41813517 2.8125 6.875 C2.28269531 5.79992187 1.75289063 4.72484375 1.20703125 3.6171875 C0 1 0 1 0 0 Z " fill="#7A787A" transform="translate(278,113)"/>
<path d="M0 0 C0.66 0 1.32 0 2 0 C2.33 0.66 2.66 1.32 3 2 C3.763125 2.144375 4.52625 2.28875 5.3125 2.4375 C8.26109198 3.05464716 9.73296884 4.06882531 12 6 C11.67 7.65 11.34 9.3 11 11 C7 11 7 11 5.078125 9.35546875 C4.17320312 8.28232422 4.17320312 8.28232422 3.25 7.1875 C2.63640625 6.47980469 2.0228125 5.77210938 1.390625 5.04296875 C0 3 0 3 0 0 Z " fill="#4B4B4B" transform="translate(135,260)"/>
<path d="M0 0 C3.56217809 1.69203459 6.99721699 3.53102196 10.375 5.5625 C11.06335938 5.97628906 11.75171875 6.39007813 12.4609375 6.81640625 C12.96882813 7.20699219 13.47671875 7.59757812 14 8 C14 8.66 14 9.32 14 10 C10.12459955 10.17615457 7.24484731 10.28341107 4 8 C3.67 7.01 3.34 6.02 3 5 C2.34 5 1.68 5 1 5 C0.67 3.35 0.34 1.7 0 0 Z " fill="#7E7D7E" transform="translate(488,269)"/>
<path d="M0 0 C1.32 0.33 2.64 0.66 4 1 C4 3.97 4 6.94 4 10 C4.66 10 5.32 10 6 10 C6.33 13.3 6.66 16.6 7 20 C7.99 20.33 8.98 20.66 10 21 C9.34 21 8.68 21 8 21 C7.67 21.66 7.34 22.32 7 23 C4.67239417 17.9246188 3.0888702 12.99079817 1.8125 7.5625 C1.63525391 6.83095703 1.45800781 6.09941406 1.27539062 5.34570312 C0.84479109 3.56511585 0.42160784 1.78273774 0 0 Z " fill="#8B8A8B" transform="translate(460,250)"/>
<path d="M0 0 C1 3 1 3 0.0625 5.1875 C-0.288125 5.785625 -0.63875 6.38375 -1 7 C-1.66 7 -2.32 7 -3 7 C-3.33 7.66 -3.66 8.32 -4 9 C-4.33 8.67 -4.66 8.34 -5 8 C-5.33 9.32 -5.66 10.64 -6 12 C-8.31 12.66 -10.62 13.32 -13 14 C-11.75794193 10.27382578 -9.8889325 8.60708543 -7 6 C-6.34 6 -5.68 6 -5 6 C-5 5.34 -5 4.68 -5 4 C-4.34 4 -3.68 4 -3 4 C-3 3.34 -3 2.68 -3 2 C-2.01 1.34 -1.02 0.68 0 0 Z " fill="#767576" transform="translate(313,124)"/>
<path d="M0 0 C-0.66 1.32 -1.32 2.64 -2 4 C-2.66 4 -3.32 4 -4 4 C-4 3.34 -4 2.68 -4 2 C-5.32 2 -6.64 2 -8 2 C-8.33 2.99 -8.66 3.98 -9 5 C-12.66666667 5 -16.33333333 5 -20 5 C-20.33 4.34 -20.66 3.68 -21 3 C-18.43850372 2.49432271 -15.87600535 1.99529868 -13.3125 1.5 C-12.59126953 1.35691406 -11.87003906 1.21382813 -11.12695312 1.06640625 C-7.36158641 0.34428113 -3.85526187 -0.1824976 0 0 Z " fill="#8B8B8B" transform="translate(377,66)"/>
<path d="M0 0 C6.5038368 2.66066051 12.73584087 5.82163354 19 9 C18.01 9.66 17.02 10.32 16 11 C14.68 10.34 13.36 9.68 12 9 C12 8.34 12 7.68 12 7 C8.7 7 5.4 7 2 7 C2 5.68 2 4.36 2 3 C1.34 2.67 0.68 2.34 0 2 C0 1.34 0 0.68 0 0 Z " fill="#848484" transform="translate(358,181)"/>
<path d="M0 0 C1.32 0.66 2.64 1.32 4 2 C3.67 2.99 3.34 3.98 3 5 C3 4.34 3 3.68 3 3 C-0.91603304 5.79420492 -0.91603304 5.79420492 -3 10 C-3.99 10 -4.98 10 -6 10 C-6.33 10.66 -6.66 11.32 -7 12 C-8.32 11.67 -9.64 11.34 -11 11 C-10.34 11 -9.68 11 -9 11 C-8.6596875 10.1646875 -8.6596875 10.1646875 -8.3125 9.3125 C-6.62449964 6.33840412 -4.53323483 4.27991135 -2 2 C-1.34 2 -0.68 2 0 2 C0 1.34 0 0.68 0 0 Z " fill="#868686" transform="translate(416,90)"/>
<path d="M0 0 C0.33 0 0.66 0 1 0 C1.08142927 1.7492214 1.13938541 3.49954542 1.1875 5.25 C1.22230469 6.22453125 1.25710937 7.1990625 1.29296875 8.203125 C0.96075202 11.37468742 0.11327721 12.67040307 -2 15 C-3.65 14.67 -5.3 14.34 -7 14 C-6.67 13.34 -6.34 12.68 -6 12 C-5.34 12 -4.68 12 -4 12 C-4.33 11.01 -4.66 10.02 -5 9 C-3.68 8.67 -2.36 8.34 -1 8 C-0.67 5.36 -0.34 2.72 0 0 Z " fill="#525252" transform="translate(225,345)"/>
<path d="M0 0 C2 1 2 1 4 3 C4.99 3 5.98 3 7 3 C7.66 4.98 8.32 6.96 9 9 C5.72965541 9.36337162 4.39116247 9.28544288 1.6875 7.3125 C-0.28544288 4.60883753 -0.36337162 3.27034459 0 0 Z " fill="#434343" transform="translate(54,206)"/>
<path d="M0 0 C0.99 0.33 1.98 0.66 3 1 C-0.50897269 5.18423892 -4.08060535 9.19588166 -8 13 C-8.66 12.01 -9.32 11.02 -10 10 C-8.68 10 -7.36 10 -6 10 C-6 9.01 -6 8.02 -6 7 C-5.34 7 -4.68 7 -4 7 C-4.33 6.01 -4.66 5.02 -5 4 C-3.36587557 2.29159719 -2.13093906 1.06546953 0 0 Z " fill="#7A797A" transform="translate(261,124)"/>
<path d="M0 0 C0.66 0 1.32 0 2 0 C4 3 4 3 5 5 C4.34 5.66 3.68 6.32 3 7 C2.01 6.01 1.02 5.02 0 4 C-1.65 5.32 -3.3 6.64 -5 8 C-5.99 7.01 -6.98 6.02 -8 5 C-5.77077045 2.77077045 -3.90864722 2.11871047 -1 1 C-0.67 0.67 -0.34 0.34 0 0 Z " fill="#787677" transform="translate(448,77)"/>
<path d="M0 0 C0.33 0 0.66 0 1 0 C0.24984418 7.37653219 -0.83441535 14.67831776 -2 22 C-2.99 21.34 -3.98 20.68 -5 20 C-4.54915507 17.41515574 -4.08964737 14.8323671 -3.625 12.25 C-3.49867188 11.52039063 -3.37234375 10.79078125 -3.2421875 10.0390625 C-2.58165926 6.4061572 -1.92552338 3.1812995 0 0 Z " fill="#929292" transform="translate(464,71)"/>
<path d="M0 0 C4.74018901 1.83491188 9.36413251 3.91941459 14 6 C13.01 6.66 12.02 7.32 11 8 C10.34 7.67 9.68 7.34 9 7 C9 6.34 9 5.68 9 5 C8.21625 5.185625 7.4325 5.37125 6.625 5.5625 C4 6 4 6 2 5 C1.67 5.66 1.34 6.32 1 7 C0.67 4.69 0.34 2.38 0 0 Z " fill="#7C7C7C" transform="translate(377,191)"/>
<path d="M0 0 C0.66 0.66 1.32 1.32 2 2 C1.505 2.433125 1.01 2.86625 0.5 3.3125 C-1.33218192 4.99740483 -1.33218192 4.99740483 -1 8 C-3.75 10.25 -3.75 10.25 -7 12 C-9.375 11.75 -9.375 11.75 -11 11 C-10.34 11 -9.68 11 -9 11 C-8.731875 10.401875 -8.46375 9.80375 -8.1875 9.1875 C-7.00082594 7.00152146 -5.90400887 5.58667406 -4 4 C-3.34 4 -2.68 4 -2 4 C-2 3.34 -2 2.68 -2 2 C-1.34 2 -0.68 2 0 2 C0 1.34 0 0.68 0 0 Z " fill="#898989" transform="translate(404,102)"/>
<path d="M0 0 C0.99 0.33 1.98 0.66 3 1 C-0.96 4.96 -4.92 8.92 -9 13 C-10 10 -10 10 -8.875 7.5 C-6.81882835 4.75843779 -5.06281674 3.49214149 -2 2 C-1.34 2 -0.68 2 0 2 C0 1.34 0 0.68 0 0 Z " fill="#7B797A" transform="translate(440,85)"/>
<path d="M0 0 C1.32 0.66 2.64 1.32 4 2 C3.01 3.485 3.01 3.485 2 5 C2.33 5.99 2.66 6.98 3 8 C2.01 8.33 1.02 8.66 0 9 C-1.32 7.68 -2.64 6.36 -4 5 C-2.68 3.35 -1.36 1.7 0 0 Z " fill="#595959" transform="translate(300,206)"/>
<path d="M0 0 C0.99 0 1.98 0 3 0 C2.34 1.32 1.68 2.64 1 4 C0.34 4 -0.32 4 -1 4 C-1.66 5.32 -2.32 6.64 -3 8 C-3.66 8 -4.32 8 -5 8 C-5.33 8.99 -5.66 9.98 -6 11 C-6.66 11 -7.32 11 -8 11 C-8 10.01 -8 9.02 -8 8 C-7.34 8 -6.68 8 -6 8 C-5.67 7.01 -5.34 6.02 -5 5 C-4.34 5 -3.68 5 -3 5 C-2.67 3.68 -2.34 2.36 -2 1 C-1.67 1.33 -1.34 1.66 -1 2 C-0.67 1.34 -0.34 0.68 0 0 Z " fill="#787778" transform="translate(286,341)"/>
<path d="M0 0 C0.66 0 1.32 0 2 0 C2.70088156 1.74468372 3.38524009 3.49601161 4.0625 5.25 C4.44535156 6.22453125 4.82820313 7.1990625 5.22265625 8.203125 C6.01113787 11.04007395 6.02437812 12.29409552 5 15 C5 14.01 5 13.02 5 12 C4.34 12 3.68 12 3 12 C2.87625 11.360625 2.7525 10.72125 2.625 10.0625 C2.41875 9.381875 2.2125 8.70125 2 8 C1.34 7.67 0.68 7.34 0 7 C-1.09036928 4.0262656 -1.03864166 3.11592499 0 0 Z " fill="#807D7E" transform="translate(461,296)"/>
<path d="M0 0 C0 0.66 0 1.32 0 2 C-5.61 2 -11.22 2 -17 2 C-17 1.34 -17 0.68 -17 0 C-14.72979256 -0.19493195 -12.45879711 -0.38070418 -10.1875 -0.5625 C-8.92292969 -0.66691406 -7.65835938 -0.77132812 -6.35546875 -0.87890625 C-3 -1 -3 -1 0 0 Z " fill="#514F51" transform="translate(194,145)"/>
<path d="M0 0 C1.65 0 3.3 0 5 0 C6.98362069 2.91708924 6.9876191 4.12380904 6.625 7.75 C6.41875 8.8225 6.2125 9.895 6 11 C2.90407165 7.4912812 1.25805377 4.50802601 0 0 Z " fill="#666666" transform="translate(343,337)"/>
<path d="M0 0 C1.65 0 3.3 0 5 0 C1.49102731 4.18423892 -2.08060535 8.19588166 -6 12 C-6.66 11.34 -7.32 10.68 -8 10 C-3 5 -3 5 -1.1875 3.3125 C0.22363777 2.04781729 0.22363777 2.04781729 0 0 Z " fill="#828182" transform="translate(386,137)"/>
<path d="M0 0 C0.66 0 1.32 0 2 0 C2.33 0.99 2.66 1.98 3 3 C0.66666667 5.33333333 -1.66666667 7.66666667 -4 10 C-4.99 9.67 -5.98 9.34 -7 9 C-5.625 6.5 -5.625 6.5 -4 4 C-3.34 4 -2.68 4 -2 4 C-1.34 2.68 -0.68 1.36 0 0 Z " fill="#7D7D7D" transform="translate(385,121)"/>
<path d="M0 0 C0.66 0.99 1.32 1.98 2 3 C0.93283928 4.20205464 -0.15438337 5.38632333 -1.25 6.5625 C-2.15492188 7.55443359 -2.15492188 7.55443359 -3.078125 8.56640625 C-5 10 -5 10 -7.234375 9.71484375 C-7.81703125 9.47894531 -8.3996875 9.24304688 -9 9 C-7.625 7.5 -7.625 7.5 -6 6 C-5.34 6 -4.68 6 -4 6 C-4 5.34 -4 4.68 -4 4 C-3.34 4 -2.68 4 -2 4 C-1.34 2.68 -0.68 1.36 0 0 Z " fill="#858585" transform="translate(255,181)"/>
<path d="M0 0 C0.66 0.33 1.32 0.66 2 1 C0.44396229 4.81936528 -1.95604931 7.26044438 -5 10 C-5.66 10 -6.32 10 -7 10 C-7.33 10.66 -7.66 11.32 -8 12 C-7.47557578 8.2241456 -6.67345333 5.77627845 -4 3 C-3.01 3 -2.02 3 -1 3 C-0.67 2.01 -0.34 1.02 0 0 Z " fill="#7B7A7B" transform="translate(313,142)"/>
<path d="M0 0 C-4.625 4.875 -4.625 4.875 -8 6 C-8.33 6.66 -8.66 7.32 -9 8 C-10 5 -10 5 -10 2 C-6.49223216 0.39644899 -3.85645121 -0.22036864 0 0 Z " fill="#676667" transform="translate(110,125)"/>
<path d="M0 0 C4 2 4 2 5.25 5.5 C6 9 6 9 6 11 C5.01 11.33 4.02 11.66 3 12 C2.01 8.04 1.02 4.08 0 0 Z " fill="#767676" transform="translate(447,296)"/>
<path d="M0 0 C1.98 0 3.96 0 6 0 C5.34 1.98 4.68 3.96 4 6 C2.0625 5.6875 2.0625 5.6875 0 5 C-0.33 4.01 -0.66 3.02 -1 2 C-0.67 1.34 -0.34 0.68 0 0 Z " fill="#3E3C3E" transform="translate(110,321)"/>
<path d="M0 0 C1.98 0 3.96 0 6 0 C5.125 3.875 5.125 3.875 4 5 C2.33382885 5.04063832 0.66611905 5.042721 -1 5 C-0.67 3.35 -0.34 1.7 0 0 Z " fill="#828081" transform="translate(426,56)"/>
<path d="M0 0 C3.33773709 3.64116773 3.97864902 7.28607242 5 12 C3.08203125 11.671875 3.08203125 11.671875 1 11 C-0.91502155 6.9875739 -1.25190641 4.25648179 0 0 Z " fill="#817F80" transform="translate(476,252)"/>
<path d="M0 0 C3.6875 0.875 3.6875 0.875 7 2 C6.01 2.495 6.01 2.495 5 3 C5 3.66 5 4.32 5 5 C3.25 5.75 3.25 5.75 1 6 C-1.25 4.0625 -1.25 4.0625 -3 2 C-2.01 1.34 -1.02 0.68 0 0 Z " fill="#747474" transform="translate(397,201)"/>
<path d="M0 0 C0.33 0.66 0.66 1.32 1 2 C2.32 2 3.64 2 5 2 C3.63016497 5.16115776 3.0109362 5.9927092 0 8 C-0.99 8 -1.98 8 -3 8 C-2.690625 7.236875 -2.38125 6.47375 -2.0625 5.6875 C-1.32106407 3.81210323 -0.63771783 1.91315348 0 0 Z " fill="#8F8E8F" transform="translate(78,145)"/>
<path d="M0 0 C1.32 0 2.64 0 4 0 C4.33 1.32 4.66 2.64 5 4 C3.125 5.0625 3.125 5.0625 1 6 C0.34 5.67 -0.32 5.34 -1 5 C-0.67 3.35 -0.34 1.7 0 0 Z " fill="#4C4A4D" transform="translate(129,232)"/>
<path d="M0 0 C0.66 0 1.32 0 2 0 C1 3 1 3 -1 5 C-1.268125 5.680625 -1.53625 6.36125 -1.8125 7.0625 C-3 9 -3 9 -5.625 9.75 C-6.40875 9.8325 -7.1925 9.915 -8 10 C-6.75794193 6.27382578 -4.8889325 4.60708543 -2 2 C-1.34 2 -0.68 2 0 2 C0 1.34 0 0.68 0 0 Z " fill="#818081" transform="translate(280,156)"/>
<path d="M0 0 C0.33 0.66 0.66 1.32 1 2 C3.31 2 5.62 2 8 2 C8.33 2.66 8.66 3.32 9 4 C7.41676312 4.027193 5.83338938 4.04648306 4.25 4.0625 C2.92742187 4.07990234 2.92742187 4.07990234 1.578125 4.09765625 C-0.7818838 4.00826198 -2.74498524 3.66912821 -5 3 C-5 2.34 -5 1.68 -5 1 C-3.35 0.67 -1.7 0.34 0 0 Z " fill="#3E3D3F" transform="translate(124,369)"/>
<path d="M0 0 C1.43088528 2.86177057 0.59991697 4.93375773 0 8 C-2.31 8 -4.62 8 -7 8 C-6.02133662 6.85373678 -5.04205413 5.70800212 -4.0625 4.5625 C-3.51722656 3.92441406 -2.97195313 3.28632813 -2.41015625 2.62890625 C-1.63204305 1.73008851 -0.84063472 0.84063472 0 0 Z " fill="#7E7E7E" transform="translate(324,182)"/>
<path d="M0 0 C3 1 3 1 4.4375 3.4375 C6.09552981 6.15666889 7.08436939 6.89407115 10 8 C10 8.66 10 9.32 10 10 C9.01 10 8.02 10 7 10 C7 9.34 7 8.68 7 8 C6.401875 7.979375 5.80375 7.95875 5.1875 7.9375 C3 7 3 7 1.25 3.4375 C0.8375 2.303125 0.425 1.16875 0 0 Z " fill="#807F81" transform="translate(278,113)"/>
<path d="M0 0 C2.96404505 2.80804268 5.44499019 5.18315774 7 9 C5.35 8.67 3.7 8.34 2 8 C2 7.01 2 6.02 2 5 C1.01 4.67 0.02 4.34 -1 4 C-0.67 2.68 -0.34 1.36 0 0 Z " fill="#7A7879" transform="translate(169,39)"/>
<path d="M0 0 C4.62 0 9.24 0 14 0 C14 0.33 14 0.66 14 1 C10.7 1.33 7.4 1.66 4 2 C4 2.66 4 3.32 4 4 C2.68 4.33 1.36 4.66 0 5 C0 3.35 0 1.7 0 0 Z " fill="#292729" transform="translate(164,391)"/>
<path d="M0 0 C0.33 0 0.66 0 1 0 C1.05389087 1.95803507 1.09274217 3.91648909 1.125 5.875 C1.14820313 6.96554687 1.17140625 8.05609375 1.1953125 9.1796875 C1 12 1 12 -1 14 C-1.33 13.01 -1.66 12.02 -2 11 C-1.34 11 -0.68 11 0 11 C-0.33 10.4225 -0.66 9.845 -1 9.25 C-2 7 -2 7 -2 3 C-1.34 3 -0.68 3 0 3 C0 2.01 0 1.02 0 0 Z " fill="#787778" transform="translate(468,313)"/>
<path d="M0 0 C0 3.63327194 -0.95586411 5.04735927 -3 8 C-3.99 8.66 -4.98 9.32 -6 10 C-6.99 9.67 -7.98 9.34 -9 9 C-7.68 8.34 -6.36 7.68 -5 7 C-5 6.34 -5 5.68 -5 5 C-4.34 5 -3.68 5 -3 5 C-2.690625 4.360625 -2.38125 3.72125 -2.0625 3.0625 C-1 1 -1 1 0 0 Z " fill="#8C8B8B" transform="translate(178,258)"/>
<path d="M0 0 C1.32554118 3.97662354 0.34765994 6.09887911 -1 10 C-1.66 10.66 -2.32 11.32 -3 12 C-3.99 12 -4.98 12 -6 12 C-4.43358249 7.69235185 -2.31663844 3.93828536 0 0 Z " fill="#646060" transform="translate(108,228)"/>
<path d="M0 0 C0.66 0.33 1.32 0.66 2 1 C0.71700242 3.86207152 -0.530636 6.0245088 -3 8 C-3.99 8 -4.98 8 -6 8 C-6.33 8.99 -6.66 9.98 -7 11 C-7.66 10.34 -8.32 9.68 -9 9 C-8.34 9 -7.68 9 -7 9 C-7 8.34 -7 7.68 -7 7 C-6.34 7 -5.68 7 -5 7 C-5 6.34 -5 5.68 -5 5 C-3.37446717 3.29319053 -1.70884005 1.62339805 0 0 Z " fill="#868686" transform="translate(357,149)"/>
<path d="M0 0 C1.32 0 2.64 0 4 0 C4 1.32 4 2.64 4 4 C5.65 4 7.3 4 9 4 C9 4.99 9 5.98 9 7 C5.59687262 5.94124926 2.98646769 4.99097846 0 3 C0 2.01 0 1.02 0 0 Z " fill="#A2A0A1" transform="translate(421,57)"/>
<path d="M0 0 C0 3.84052912 -0.90767691 5.79177126 -3 9 C-6.1875 9.875 -6.1875 9.875 -9 10 C-8.06409496 8.8944811 -7.12620142 7.79064547 -6.1875 6.6875 C-5.66542969 6.07261719 -5.14335937 5.45773437 -4.60546875 4.82421875 C-3.12827531 3.14575321 -1.59960869 1.56117966 0 0 Z " fill="#7C7C7C" transform="translate(248,258)"/>
<path d="M0 0 C2 3 2 3 1.625 5.1875 C1.41875 5.785625 1.2125 6.38375 1 7 C-1.31 7 -3.62 7 -6 7 C-4.02 4.69 -2.04 2.38 0 0 Z " fill="#4D4B4C" transform="translate(229,209)"/>
<path d="M0 0 C1.42944945 2.35438733 2.08661261 3.48032433 1.625 6.25 C1.41875 6.8275 1.2125 7.405 1 8 C0.01 7.67 -0.98 7.34 -2 7 C-2.99 7 -3.98 7 -5 7 C-3.35 4.69 -1.7 2.38 0 0 Z " fill="#686768" transform="translate(379,367)"/>
<path d="M0 0 C2 1 2 1 3.125 4.0625 C3.41375 5.031875 3.7025 6.00125 4 7 C3.01 7.66 2.02 8.32 1 9 C1 8.34 1 7.68 1 7 C0.01 7 -0.98 7 -2 7 C-1.67 6.01 -1.34 5.02 -1 4 C-0.34 4 0.32 4 1 4 C0.67 2.68 0.34 1.36 0 0 Z " fill="#737373" transform="translate(363,343)"/>
<path d="M0 0 C0.66 0 1.32 0 2 0 C1.65120368 3.25543229 0.97866739 4.01873107 -1.5625 6.25 C-2.366875 6.8275 -3.17125 7.405 -4 8 C-4 6.68 -4 5.36 -4 4 C-3.34 4 -2.68 4 -2 4 C-1.34 2.68 -0.68 1.36 0 0 Z " fill="#878787" transform="translate(369,137)"/>
<path d="M0 0 C0.99 0.33 1.98 0.66 3 1 C2.07038578 2.15224028 1.1309875 3.29659176 0.1875 4.4375 C-0.59560547 5.39462891 -0.59560547 5.39462891 -1.39453125 6.37109375 C-3 8 -3 8 -6 9 C-5.67 7.35 -5.34 5.7 -5 4 C-4.01 4 -3.02 4 -2 4 C-2 3.34 -2 2.68 -2 2 C-1.34 2 -0.68 2 0 2 C0 1.34 0 0.68 0 0 Z " fill="#8E8B8C" transform="translate(422,103)"/>
<path d="M0 0 C0.99 0.33 1.98 0.66 3 1 C4.09898702 4.29696105 3.87124444 5.40494903 3.0625 8.6875 C2.77052734 9.89986328 2.77052734 9.89986328 2.47265625 11.13671875 C2.31667969 11.75160156 2.16070312 12.36648437 2 13 C1.67 13 1.34 13 1 13 C0.67 8.71 0.34 4.42 0 0 Z " fill="#868386" transform="translate(157,35)"/>
<path d="M0 0 C0.33 0.66 0.66 1.32 1 2 C1.66 2 2.32 2 3 2 C3 3.65 3 5.3 3 7 C1.68 7 0.36 7 -1 7 C-0.67 4.69 -0.34 2.38 0 0 Z " fill="#403E41" transform="translate(316,408)"/>
<path d="M0 0 C0.99 0 1.98 0 3 0 C2.67 1.98 2.34 3.96 2 6 C1.01 6.33 0.02 6.66 -1 7 C-1.625 5.1875 -1.625 5.1875 -2 3 C-1.34 2.01 -0.68 1.02 0 0 Z " fill="#4C4A4C" transform="translate(410,408)"/>
<path d="M0 0 C0.66 0.66 1.32 1.32 2 2 C0.87926138 2.83905565 -0.24674547 3.67107831 -1.375 4.5 C-2.00148437 4.9640625 -2.62796875 5.428125 -3.2734375 5.90625 C-5 7 -5 7 -7 7 C-5.54744301 3.17053157 -3.57104439 1.87949705 0 0 Z " fill="#656565" transform="translate(227,384)"/>
<path d="M0 0 C0.33 0.99 0.66 1.98 1 3 C0.00390625 4.82421875 0.00390625 4.82421875 -1.4375 6.6875 C-1.91058594 7.31011719 -2.38367188 7.93273437 -2.87109375 8.57421875 C-3.24363281 9.04472656 -3.61617188 9.51523437 -4 10 C-5.09375 6.265625 -5.09375 6.265625 -4.25 3.875 C-3 2 -3 2 0 0 Z " fill="#787777" transform="translate(402,360)"/>
<path d="M0 0 C0.99 0.33 1.98 0.66 3 1 C3.99 1 4.98 1 6 1 C5.67 2.65 5.34 4.3 5 6 C2.11562221 4.70700306 0.12780579 3.34058637 -2 1 C-1.34 0.67 -0.68 0.34 0 0 Z " fill="#797979" transform="translate(473,274)"/>
<path d="M0 0 C0 4.1041911 -1.45843064 5.84021107 -4 9 C-6.75 9.875 -6.75 9.875 -9 10 C-8.06409496 8.8944811 -7.12620142 7.79064547 -6.1875 6.6875 C-5.66542969 6.07261719 -5.14335937 5.45773438 -4.60546875 4.82421875 C-3.12827531 3.14575321 -1.59960869 1.56117966 0 0 Z " fill="#7B7B7B" transform="translate(154,213)"/>
<path d="M0 0 C0 0.99 0 1.98 0 3 C-0.66 3.66 -1.32 4.32 -2 5 C-2.69748583 6.31747324 -3.36959957 7.64914193 -4 9 C-4.99 9 -5.98 9 -7 9 C-5.44499019 5.18315774 -2.96404505 2.80804268 0 0 Z M-9 9 C-7 10 -7 10 -7 10 Z " fill="#828182" transform="translate(234,133)"/>
<path d="M0 0 C3.63 0 7.26 0 11 0 C10.67 0.66 10.34 1.32 10 2 C7.93359375 2.4140625 7.93359375 2.4140625 5.4375 2.625 C4.61121094 2.69976562 3.78492188 2.77453125 2.93359375 2.8515625 C1.97646484 2.92503906 1.97646484 2.92503906 1 3 C0.67 2.01 0.34 1.02 0 0 Z " fill="#3D3D3F" transform="translate(334,403)"/>
<path d="M0 0 C0.66 0.33 1.32 0.66 2 1 C1 4 1 4 -1.0625 5.1875 C-1.701875 5.455625 -2.34125 5.72375 -3 6 C-3.99 5.01 -4.98 4.02 -6 3 C-4.03533587 1.93224776 -2.03144641 0.93446535 0 0 Z " fill="#4A4849" transform="translate(305,330)"/>
<path d="M0 0 C1.48117801 0.28127421 2.95993249 0.57533732 4.4375 0.875 C5.67306641 1.11863281 5.67306641 1.11863281 6.93359375 1.3671875 C7.61550781 1.57601563 8.29742187 1.78484375 9 2 C9.33 2.66 9.66 3.32 10 4 C9.34 4.66 8.68 5.32 8 6 C8 5.01 8 4.02 8 3 C5.69 3.33 3.38 3.66 1 4 C0.67 2.68 0.34 1.36 0 0 Z " fill="#6A6A6A" transform="translate(328,321)"/>
<path d="M0 0 C0.66 0.33 1.32 0.66 2 1 C0.4375 3 0.4375 3 -2 5 C-5.75 5.25 -5.75 5.25 -9 5 C-6.32239719 2.32239719 -3.52050129 1.32018799 0 0 Z " fill="#8F8E8F" transform="translate(343,303)"/>
<path d="M0 0 C2.475 0.99 2.475 0.99 5 2 C4.67 2.99 4.34 3.98 4 5 C2.35 5 0.7 5 -1 5 C-0.67 3.35 -0.34 1.7 0 0 Z " fill="#454445" transform="translate(109,193)"/>
<path d="M0 0 C0.66 0 1.32 0 2 0 C2 0.66 2 1.32 2 2 C2.66 2 3.32 2 4 2 C6.1385485 4.1385485 6.42655063 5.13275314 7 8 C5.1875 7.9375 5.1875 7.9375 3 7 C1.25 3.4375 1.25 3.4375 0 0 Z " fill="#A0A0A0" transform="translate(454,89)"/>
<path d="M0 0 C0.99 0.33 1.98 0.66 3 1 C2.67 2.32 2.34 3.64 2 5 C0.68 5.33 -0.64 5.66 -2 6 C-2.33 5.01 -2.66 4.02 -3 3 C-2.34 3 -1.68 3 -1 3 C-0.67 2.01 -0.34 1.02 0 0 Z " fill="#484848" transform="translate(233,376)"/>
<path d="M0 0 C1.32 0 2.64 0 4 0 C5.125 3.75 5.125 3.75 4 6 C3.01 6 2.02 6 1 6 C0.67 4.02 0.34 2.04 0 0 Z " fill="#413F42" transform="translate(32,184)"/>
<path d="M0 0 C0.66 0 1.32 0 2 0 C2.33 0.99 2.66 1.98 3 3 C-2.2734375 6.22265625 -2.2734375 6.22265625 -4 7 C-4.66 6.67 -5.32 6.34 -6 6 C-5.01 5.67 -4.02 5.34 -3 5 C-3 4.34 -3 3.68 -3 3 C-2.34 3 -1.68 3 -1 3 C-0.67 2.01 -0.34 1.02 0 0 Z " fill="#888888" transform="translate(266,170)"/>
<path d="M0 0 C1.125 3.75 1.125 3.75 0 6 C-0.99 6.495 -0.99 6.495 -2 7 C-2 6.34 -2 5.68 -2 5 C-2.99 5.33 -3.98 5.66 -5 6 C-5 5.34 -5 4.68 -5 4 C-4.34 4 -3.68 4 -3 4 C-2.67 3.01 -2.34 2.02 -2 1 C-1.34 0.67 -0.68 0.34 0 0 Z " fill="#7C7C7C" transform="translate(287,150)"/>
<path d="M0 0 C0.33 0.66 0.66 1.32 1 2 C1.66 2 2.32 2 3 2 C2.34 3.65 1.68 5.3 1 7 C0.34 7 -0.32 7 -1 7 C-1 6.34 -1 5.68 -1 5 C-1.99 4.67 -2.98 4.34 -4 4 C-2.68 2.68 -1.36 1.36 0 0 Z " fill="#7A7A7A" transform="translate(221,107)"/>
<path d="M0 0 C0.66 0.99 1.32 1.98 2 3 C4.56282742 3.72965366 4.56282742 3.72965366 7 4 C7 4.33 7 4.66 7 5 C3.625 5.625 3.625 5.625 0 6 C-0.66 5.34 -1.32 4.68 -2 4 C-1.34 2.68 -0.68 1.36 0 0 Z " fill="#6A686A" transform="translate(314,412)"/>
<path d="M0 0 C0.33 0 0.66 0 1 0 C1 3.3 1 6.6 1 10 C-0.65 10.66 -2.3 11.32 -4 12 C-4.33 11.01 -4.66 10.02 -5 9 C-3.68 8.67 -2.36 8.34 -1 8 C-0.67 5.36 -0.34 2.72 0 0 Z " fill="#403F3F" transform="translate(225,345)"/>
<path d="M0 0 C1.98 1.65 3.96 3.3 6 5 C5.67 5.99 5.34 6.98 5 8 C3.0625 7.375 3.0625 7.375 1 6 C0.25 2.875 0.25 2.875 0 0 Z " fill="#828181" transform="translate(394,327)"/>
<path d="M0 0 C0.99 0 1.98 0 3 0 C3 0.66 3 1.32 3 2 C3.99 1.67 4.98 1.34 6 1 C6.99 1.33 7.98 1.66 9 2 C9 2.99 9 3.98 9 5 C4.545 4.01 4.545 4.01 0 3 C0 2.01 0 1.02 0 0 Z " fill="#888787" transform="translate(445,240)"/>
<path d="M0 0 C2.31 1.98 4.62 3.96 7 6 C6.67 6.66 6.34 7.32 6 8 C3.5625 6.8125 3.5625 6.8125 1 5 C0.1875 2.3125 0.1875 2.3125 0 0 Z " fill="#737373" transform="translate(52,100)"/>
<path d="M0 0 C2.31 0 4.62 0 7 0 C7 1.98 7 3.96 7 6 C6.34 6 5.68 6 5 6 C5 5.01 5 4.02 5 3 C2.525 2.01 2.525 2.01 0 1 C0 0.67 0 0.34 0 0 Z " fill="#A2A1A2" transform="translate(462,49)"/>
<path d="M0 0 C0.66 0 1.32 0 2 0 C2.33 1.65 2.66 3.3 3 5 C1.68 5.33 0.36 5.66 -1 6 C-1.042721 4.33388095 -1.04063832 2.66617115 -1 1 C-0.67 0.67 -0.34 0.34 0 0 Z " fill="#605E61" transform="translate(158,29)"/>
<path d="M0 0 C0.33 0.66 0.66 1.32 1 2 C1.66 2.33 2.32 2.66 3 3 C2.67 4.65 2.34 6.3 2 8 C1.01 8 0.02 8 -1 8 C-0.67 5.36 -0.34 2.72 0 0 Z " fill="#787677" transform="translate(449,341)"/>
<path d="M0 0 C0.99 0.33 1.98 0.66 3 1 C2.67 1.99 2.34 2.98 2 4 C0.35 4.33 -1.3 4.66 -3 5 C-3 4.01 -3 3.02 -3 2 C-2.01 1.34 -1.02 0.68 0 0 Z " fill="#454246" transform="translate(124,312)"/>
<path d="M0 0 C0.66 0 1.32 0 2 0 C2.33 0.99 2.66 1.98 3 3 C2.01 3 1.02 3 0 3 C-0.28875 3.804375 -0.5775 4.60875 -0.875 5.4375 C-2 8 -2 8 -4 9 C-2.94124926 5.59687262 -1.99097846 2.98646769 0 0 Z " fill="#797979" transform="translate(84,290)"/>
<path d="M0 0 C0 3.57575896 -1.08840607 5.05295935 -3 8 C-3.99 7.34 -4.98 6.68 -6 6 C-4.02 4.02 -2.04 2.04 0 0 Z " fill="#7F7D7E" transform="translate(260,107)"/>
<path d="M0 0 C0.99 0.99 1.98 1.98 3 3 C2.34 4.32 1.68 5.64 1 7 C-0.50559539 5.03617993 -1.89131683 3.21736634 -3 1 C-2.01 0.67 -1.02 0.34 0 0 Z " fill="#7D7B7C" transform="translate(348,104)"/>
<path d="M0 0 C1.8871875 0.0309375 1.8871875 0.0309375 3.8125 0.0625 C0.27838679 2.18296792 -3.13143835 2.59449289 -7.1875 3.0625 C-7.1875 2.4025 -7.1875 1.7425 -7.1875 1.0625 C-4.43671116 0.14557039 -2.82801087 -0.04636083 0 0 Z " fill="#767676" transform="translate(90.1875,101.9375)"/>
<path d="M0 0 C1.65 0.33 3.3 0.66 5 1 C4.01 1.495 4.01 1.495 3 2 C3 2.66 3 3.32 3 4 C1.02 4.99 1.02 4.99 -1 6 C-1.33 4.68 -1.66 3.36 -2 2 C-1.34 2 -0.68 2 0 2 C0 1.34 0 0.68 0 0 Z " fill="#7C7A7B" transform="translate(355,98)"/>
<path d="M0 0 C0.33 0 0.66 0 1 0 C1 4.29 1 8.58 1 13 C0.01 12.34 -0.98 11.68 -2 11 C-1.34 7.37 -0.68 3.74 0 0 Z " fill="#7F7F7F" transform="translate(461,80)"/>
<path d="M0 0 C0.99 0.33 1.98 0.66 3 1 C0.47211993 3.79872437 -1.20411134 5.45773019 -5 6 C-5 5.34 -5 4.68 -5 4 C-4.34 4 -3.68 4 -3 4 C-2.67 3.01 -2.34 2.02 -2 1 C-1.34 0.67 -0.68 0.34 0 0 Z " fill="#949494" transform="translate(431,76)"/>
<path d="M0 0 C0.99 0 1.98 0 3 0 C5.1875 2.5 5.1875 2.5 7 5 C6.67 5.66 6.34 6.32 6 7 C5.01 6.34 4.02 5.68 3 5 C3 4.34 3 3.68 3 3 C2.01 3 1.02 3 0 3 C0 2.01 0 1.02 0 0 Z " fill="#7B7A7B" transform="translate(157,26)"/>
<path d="M0 0 C0.33 0.99 0.66 1.98 1 3 C1.66 3.33 2.32 3.66 3 4 C3 4.66 3 5.32 3 6 C1.35 5.67 -0.3 5.34 -2 5 C-2 3.68 -2 2.36 -2 1 C-1.34 0.67 -0.68 0.34 0 0 Z " fill="#454545" transform="translate(90,338)"/>
<path d="M0 0 C1.32 0.33 2.64 0.66 4 1 C3.67 2.32 3.34 3.64 3 5 C2.01 4.34 1.02 3.68 0 3 C0 3.66 0 4.32 0 5 C-0.66 5 -1.32 5 -2 5 C-1.34 3.35 -0.68 1.7 0 0 Z " fill="#4B4A4C" transform="translate(96,330)"/>
<path d="M0 0 C-0.66 1.65 -1.32 3.3 -2 5 C-3.98 4.34 -5.96 3.68 -8 3 C-2 0 -2 0 0 0 Z " fill="#646064" transform="translate(321,313)"/>
<path d="M0 0 C0 3 0 3 -1 6 C-1.66 6 -2.32 6 -3 6 C-3.33 6.66 -3.66 7.32 -4 8 C-4.66 7.34 -5.32 6.68 -6 6 C-4.02 4.02 -2.04 2.04 0 0 Z " fill="#797979" transform="translate(198,308)"/>
<path d="M0 0 C0.66 0.33 1.32 0.66 2 1 C2 1.66 2 2.32 2 3 C-0.35438733 4.42944945 -1.48032433 5.08661261 -4.25 4.625 C-4.8275 4.41875 -5.405 4.2125 -6 4 C-3.94766315 1.7522025 -2.99332739 0.9977758 0 0 Z " fill="#363437" transform="translate(122,300)"/>
<path d="M0 0 C0.33 0.99 0.66 1.98 1 3 C-0.65 4.32 -2.3 5.64 -4 7 C-4 5.35 -4 3.7 -4 2 C-2.68 1.34 -1.36 0.68 0 0 Z " fill="#737373" transform="translate(160,226)"/>
<path d="M0 0 C1.32 0.33 2.64 0.66 4 1 C4.33 2.65 4.66 4.3 5 6 C4.01 5.67 3.02 5.34 2 5 C1.67 5.66 1.34 6.32 1 7 C0.67 4.69 0.34 2.38 0 0 Z " fill="#707070" transform="translate(377,191)"/>
<path d="M0 0 C0.66 0.66 1.32 1.32 2 2 C-1.465 4.97 -1.465 4.97 -5 8 C-4.67 6.68 -4.34 5.36 -4 4 C-3.01 3.67 -2.02 3.34 -1 3 C-0.67 2.01 -0.34 1.02 0 0 Z " fill="#767676" transform="translate(225,161)"/>
<path d="M0 0 C-1.32 1.32 -2.64 2.64 -4 4 C-4.66 3.67 -5.32 3.34 -6 3 C-6 2.01 -6 1.02 -6 0 C-3.50907189 -1.24546405 -2.58919267 -0.7767578 0 0 Z " fill="#3D3C3E" transform="translate(102,129)"/>
<path d="M0 0 C0.33 0 0.66 0 1 0 C0.67 2.31 0.34 4.62 0 7 C-0.99 7 -1.98 7 -3 7 C-3.33 6.01 -3.66 5.02 -4 4 C-3.01 3.67 -2.02 3.34 -1 3 C-0.67 2.01 -0.34 1.02 0 0 Z " fill="#949293" transform="translate(375,105)"/>
<path d="M0 0 C-0.33 1.32 -0.66 2.64 -1 4 C-2.65 4 -4.3 4 -6 4 C-5.67 3.01 -5.34 2.02 -5 1 C-3 0 -3 0 0 0 Z " fill="#3E3E3F" transform="translate(187,400)"/>
<path d="M0 0 C0.66 0.66 1.32 1.32 2 2 C-0.8125 4.0625 -0.8125 4.0625 -4 6 C-4.99 5.67 -5.98 5.34 -7 5 C-4.87219421 2.65941363 -2.88437779 1.29299694 0 0 Z " fill="#525051" transform="translate(259,352)"/>
<path d="M0 0 C0.66 0 1.32 0 2 0 C2.33 0.99 2.66 1.98 3 3 C2.67 3.66 2.34 4.32 2 5 C1.34 5 0.68 5 0 5 C-0.33 5.66 -0.66 6.32 -1 7 C-1.04254356 5.00045254 -1.04080783 2.99958364 -1 1 C-0.67 0.67 -0.34 0.34 0 0 Z " fill="#3F3D3E" transform="translate(213,344)"/>
<path d="M0 0 C2.86724686 0.57344937 3.8614515 0.8614515 6 3 C5.67 3.99 5.34 4.98 5 6 C3.31237149 4.3545622 1.6459651 2.68711423 0 1 C0 0.67 0 0.34 0 0 Z " fill="#4B4B4B" transform="translate(88,323)"/>
<path d="M0 0 C0.66 0.33 1.32 0.66 2 1 C-0.57784846 3.64752004 -2.91648098 5.94432065 -6 8 C-5.25 5.5625 -5.25 5.5625 -4 3 C-1.875 2.1875 -1.875 2.1875 0 2 C0 1.34 0 0.68 0 0 Z " fill="#464445" transform="translate(183,255)"/>
<path d="M0 0 C1.9375 0.75 1.9375 0.75 4 2 C4.75 4.125 4.75 4.125 5 6 C4.01 5.67 3.02 5.34 2 5 C2 4.34 2 3.68 2 3 C1.34 3 0.68 3 0 3 C0 2.01 0 1.02 0 0 Z " fill="#636363" transform="translate(123,229)"/>
<path d="M0 0 C0 2.83967231 -0.40267181 5.23735711 -1 8 C-1.99 7.01 -2.98 6.02 -4 5 C-2.68 3.35 -1.36 1.7 0 0 Z " fill="#7B7B7B" transform="translate(300,206)"/>
<path d="M0 0 C1.125 3.75 1.125 3.75 0 6 C-2.5625 6.625 -2.5625 6.625 -5 7 C-5 6.34 -5 5.68 -5 5 C-4.34 5 -3.68 5 -3 5 C-3 4.34 -3 3.68 -3 3 C-1.5 1.375 -1.5 1.375 0 0 Z " fill="#8E8E8E" transform="translate(343,163)"/>
<path d="M0 0 C0.66 0.33 1.32 0.66 2 1 C1.34 2.65 0.68 4.3 0 6 C-1.32 5.67 -2.64 5.34 -4 5 C-3.67 4.34 -3.34 3.68 -3 3 C-2.34 3 -1.68 3 -1 3 C-0.67 2.01 -0.34 1.02 0 0 Z " fill="#848284" transform="translate(292,144)"/>
<path d="M0 0 C1.65 0.99 3.3 1.98 5 3 C4.67 3.99 4.34 4.98 4 6 C2.68 5.67 1.36 5.34 0 5 C0 3.35 0 1.7 0 0 Z " fill="#787677" transform="translate(187,139)"/>
<path d="M0 0 C0.66 0.99 1.32 1.98 2 3 C0.68 3.99 -0.64 4.98 -2 6 C-2.66 5.34 -3.32 4.68 -4 4 C-3.34 4 -2.68 4 -2 4 C-2 3.34 -2 2.68 -2 2 C-1.34 2 -0.68 2 0 2 C0 1.34 0 0.68 0 0 Z M-3 6 C-2.34 6.66 -1.68 7.32 -1 8 C-1.66 8 -2.32 8 -3 8 C-3 7.34 -3 6.68 -3 6 Z " fill="#818181" transform="translate(376,130)"/>
<path d="M0 0 C0.66 0 1.32 0 2 0 C2 0.66 2 1.32 2 2 C2.66 2.33 3.32 2.66 4 3 C3.67 3.99 3.34 4.98 3 6 C2.01 5.67 1.02 5.34 0 5 C0 3.35 0 1.7 0 0 Z " fill="#474747" transform="translate(27,90)"/>
<path d="M0 0 C1.98 0.99 3.96 1.98 6 3 C6 3.66 6 4.32 6 5 C4.68 5.33 3.36 5.66 2 6 C1.34 4.02 0.68 2.04 0 0 Z " fill="#818181" transform="translate(214,87)"/>
<path d="M0 0 C0.99 0.33 1.98 0.66 3 1 C-0.465 3.97 -0.465 3.97 -4 7 C-3.67 5.68 -3.34 4.36 -3 3 C-2.01 2.67 -1.02 2.34 0 2 C0 1.34 0 0.68 0 0 Z " fill="#909090" transform="translate(440,85)"/>
<path d="M0 0 C1.67542976 0.28604898 3.34385343 0.61781233 5 1 C3.3545622 2.68762851 1.68711423 4.3540349 0 6 C-0.33 6 -0.66 6 -1 6 C-1.042721 4.33388095 -1.04063832 2.66617115 -1 1 C-0.67 0.67 -0.34 0.34 0 0 Z " fill="#404040" transform="translate(27,82)"/>
<path d="M0 0 C0.33 0 0.66 0 1 0 C1.08159574 4.16138263 0.98248524 7.9472484 0 12 C-1.125 10.5 -1.125 10.5 -2 8 C-1.57598348 5.2226918 -0.81108065 2.70360217 0 0 Z " fill="#A5A5A5" transform="translate(381,71)"/>
</svg>
